<svg width="59" height="32" viewBox="0 0 59 32" fill="none" xmlns="http://www.w3.org/2000/svg">
<path d="M2.13281 13.5809C0.954261 13.5809 -0.00114441 14.5363 -0.00114441 15.7148C-0.00114441 16.8934 0.954261 17.8488 2.13281 17.8488V15.7148V13.5809ZM57.5436 17.2238C58.377 16.3904 58.377 15.0393 57.5436 14.2059L43.9632 0.62549C43.1298 -0.207872 41.7787 -0.207872 40.9453 0.62549C40.112 1.45885 40.112 2.81 40.9453 3.64336L53.0168 15.7148L40.9453 27.7863C40.112 28.6197 40.112 29.9708 40.9453 30.8042C41.7787 31.6376 43.1298 31.6376 43.9632 30.8042L57.5436 17.2238ZM2.13281 15.7148V17.8488H56.0347V15.7148V13.5809H2.13281V15.7148Z" fill="white"/>
</svg>
