<svg width="409" height="113" viewBox="0 0 409 113" fill="none" xmlns="http://www.w3.org/2000/svg">
<path d="M116.152 41.8971C116.113 42.8432 115.942 43.8286 115.324 44.5644C113.877 46.2857 111.826 45.4842 110.247 43.8812C109.366 47.3369 104.158 48.7428 100.568 48.9399C96.4782 49.1764 92.4802 47.6916 88.8637 46.0623L88.0878 52.4219C88.0615 52.6058 87.9168 53.7227 87.7064 54.8001C88.4823 55.3126 89.324 55.9958 89.8763 56.4294C95.071 60.5947 98.5692 66.5469 100.765 72.7882C102.962 79.0426 103.935 85.6386 104.829 92.1952C105.197 94.9283 105.526 97.8715 104.25 100.315C102.173 104.323 96.7543 105.309 92.2698 104.625C90.9679 104.428 89.6922 104.257 88.4428 103.837C88.8768 103.075 89.1399 102.457 89.416 101.603C89.9815 99.8293 90.1393 97.9504 90.1919 96.0977C90.284 92.4449 89.8106 88.779 89.0346 85.2182C87.5354 78.333 84.8131 71.6056 81.0651 65.6008C81.1571 65.5877 81.2492 65.5483 81.3412 65.4826C84.2213 63.6299 86.5359 60.3844 87.1803 57.0864C87.2066 56.9419 87.2198 56.8236 87.2066 56.7316C87.2066 56.7316 87.2066 56.7185 87.2066 56.7054C87.2066 56.4163 86.891 56.1404 86.7332 56.0878C86.2598 55.9301 85.7732 56.2192 85.668 56.6265C84.8657 59.4909 83.0509 62.4999 80.4864 64.1423C80.3943 64.208 80.3286 64.2737 80.2628 64.3394C80.1313 64.1423 79.9998 63.9453 79.8683 63.7482C77.5932 60.3844 74.9235 57.2178 71.7409 54.6556C70.9518 54.0118 69.8735 55.168 70.6625 55.8119C76.2254 60.3187 80.2891 66.5732 83.235 72.9984C86.2466 79.5682 88.3376 86.7555 88.5744 93.9954C88.6401 95.94 88.5744 97.9109 88.2193 99.8293C87.7064 102.707 85.326 104.665 80.9599 105.506C76.883 106.294 72.6089 104.494 69.6499 101.616C66.6909 98.7256 64.8629 94.902 63.4162 91.039C61.1411 84.9685 59.6945 78.5958 59.1027 72.1443C59.0501 71.5793 58.9975 70.9749 58.6424 70.5282C58.2479 70.042 57.5903 69.8449 56.9722 69.7135C56.1568 69.5296 53.6581 69.3062 50.6991 69.0959C50.6991 73.3926 49.555 80.2645 48.4371 84.0487C47.4508 87.373 45.9121 90.6973 43.1109 92.7734C39.2445 95.6378 34.0498 95.4144 29.1839 94.7575C33.2344 89.4491 35.4044 82.6034 36.7326 76.257C37.0482 74.7591 38.0083 70.9092 38.2581 68.5966C37.9294 68.5966 37.6532 68.5966 37.4296 68.6229C36.154 68.7937 36.0751 70.7778 36.0751 70.7778C35.0624 78.3462 33.0371 86.1248 28.8025 92.5369C28.3553 93.2201 27.8688 93.8771 27.3559 94.5078C27.3296 94.5472 27.3033 94.5735 27.277 94.6129C26.4747 95.5984 25.5805 96.5182 24.6336 97.3459C21.5299 99.6191 17.2953 100.407 13.6392 99.1198C12.3767 98.673 11.1537 97.9766 10.3646 96.9123C9.19416 95.3356 9.1284 93.2201 9.24676 91.2623C9.62814 84.9291 11.443 78.7798 13.2579 72.6962C14.4941 68.5178 15.8486 64.2737 18.1501 60.5158C19.2679 58.7026 20.5962 57.0339 22.2401 55.6411C22.8976 55.0892 23.9103 54.5505 24.0155 53.6044C24.1338 52.5533 23.016 51.3182 22.5162 50.4641C20.8855 47.6916 19.2548 44.9192 17.624 42.1468C15.5593 38.6385 13.4157 34.5127 14.8228 30.7022C15.533 28.7839 17.098 27.1546 17.3084 25.1048C17.5057 23.1601 16.3352 21.4389 14.9675 20.0198C12.6792 17.6678 15.9801 15.2239 17.8476 15.8808C20.3463 16.7612 18.7419 19.192 20.8066 21.6622C22.9502 24.2376 27.1717 21.0841 31.8404 26.064C37.285 31.8716 39.8757 38.967 42.4007 46.4828C49.8706 45.2871 57.5903 45.6156 64.9286 47.4551C65.3626 47.5602 65.8229 47.6654 66.2174 47.4551C66.5462 47.2843 66.7303 46.9296 66.8881 46.6011C68.0191 44.2491 69.1633 41.9103 70.2943 39.5583C67.3484 38.8225 65.0207 36.4836 63.6267 33.8032C62.2326 31.1227 60.8123 28.0612 60.352 25.0916C59.4315 19.192 58.8923 13.4894 60.9701 7.87879C61.483 6.49914 63.0349 4.72531 64.1264 3.73984C67.3484 0.862288 72.7272 2.12369 75.9361 5.17205C78.6321 7.73427 80.1313 11.4922 81.3149 14.9479C82.538 18.4956 83.5506 22.9368 82.0119 26.5501C81.7884 27.0757 82.1435 27.5487 82.5643 27.6801C82.5643 27.7064 82.972 27.6539 82.972 27.6539C83.3139 27.5882 83.3402 27.5093 83.3665 27.4436C84.9709 23.5018 84.2345 18.5744 82.9194 14.6851C81.7489 11.19 80.0393 7.66856 77.6721 4.76472C79.2107 3.17484 80.9204 1.74263 82.9457 0.849149C85.4049 -0.228293 88.4034 -0.385967 90.6917 0.993684C93.8217 2.88578 94.7685 6.93275 95.0579 10.5593C95.4655 15.7626 94.8343 21.7016 93.7296 26.7998C95.1499 26.7998 96.3993 26.7998 97.0437 26.7998C99.9369 27.0626 102.817 27.5487 105.395 28.8233C108.906 30.5708 111.773 34.2236 111.326 38.0998C113.417 37.2194 114.679 37.0486 115.705 38.0604C116.731 39.0721 116.271 40.4386 116.205 41.8708L116.152 41.8971Z" fill="url(#paint0_linear_49_846)"/>
<path d="M72.8862 97.4639C70.256 98.134 68.0071 92.5366 66.8498 89.2911C65.2323 84.8105 64.0487 80.1329 63.3253 75.3501C63.1412 74.1412 61.9708 66.4678 64.5747 69.7921C65.7188 71.2637 66.4159 73.7076 67.0734 75.5603C68.9803 80.9212 70.7426 86.1771 72.8073 91.6037C74.0041 94.7572 74.2802 97.096 72.8994 97.4508L72.8862 97.4639Z" fill="#8C9DF4"/>
<path d="M76.7782 102.312C75.8576 102.47 74.9239 101.931 74.3584 101.195C74.0296 100.762 74.0559 99.8158 74.2795 99.4347C75.0948 98.0288 76.6204 99.0405 77.3174 99.5267C77.5936 99.7238 77.8697 99.9472 78.0275 100.263C78.4484 101.09 77.7119 102.168 76.7913 102.325L76.7782 102.312Z" fill="#8C9DF4"/>
<path d="M22.6353 64.9174C20.9388 69.2272 19.65 72.5777 18.5453 76.4145C17.0329 81.6309 16.0729 85.8749 14.4553 90.9731C14.1528 91.906 12.8509 93.4565 12.3248 92.9834C9.79983 90.7628 18.2297 63.9845 21.2544 61.8559C21.9514 61.3697 22.7405 61.4485 23.0035 62.1187C23.3718 63.0384 22.9772 64.0108 22.6222 64.9174H22.6353Z" fill="#8C9DF4"/>
<path d="M72.8316 9.79711C72.5159 10.5461 71.6743 9.96793 71.5296 9.82339C70.1882 8.52258 68.0446 8.08897 66.2034 11.8863C66.0061 12.2805 65.559 12.5564 65.1119 12.5564C64.3359 12.5564 63.9414 11.6235 63.9414 10.8614C63.9414 8.16781 66.0587 5.5399 68.6364 5.29025C69.6884 5.18514 70.8984 5.48735 71.6217 6.24944C72.345 7.01153 72.7132 7.72107 72.8842 8.75909C72.9499 9.10072 72.9762 9.46863 72.8316 9.79711Z" fill="#8C9DF4"/>
<path d="M69.6484 32.5547C69.0829 33.4088 67.4258 31.4378 66.8603 30.5969C63.7172 25.8141 62.6388 19.5991 62.7704 17.5099C62.9545 14.6061 65.5321 14.3433 65.7162 16.3142C66.742 27.2463 70.2796 31.5955 69.6484 32.5547Z" fill="#8C9DF4"/>
<path d="M108.328 37.6002C108.052 39.939 104.567 42.0939 104.028 40.8325C103.883 40.4909 104.567 40.123 104.922 39.8602C108.367 37.3242 105.316 33.9342 105.224 33.5795C104.988 32.5546 106.526 33.2904 107.184 34.1182C107.947 35.0774 108.473 36.3782 108.328 37.6133V37.6002Z" fill="#8C9DF4"/>
<path d="M62.4941 51.9617C61.9417 52.0668 58.1674 51.5412 56.8654 51.3178C51.5787 50.4112 44.4902 52.2639 44.1088 49.9513C43.8063 48.0986 53.0384 47.9015 57.9043 48.8213C59.2195 49.071 63.1516 50.109 63.3621 50.963C63.4936 51.5018 63.0596 51.8565 62.4941 51.9617Z" fill="#8C9DF4"/>
<path d="M25.2528 49.0054C24.6216 49.2813 24.0166 48.5192 23.6484 47.9411C21.1234 44.0255 18.6641 40.0836 17.0597 35.6556C16.3495 33.7241 16.5731 29.9531 18.4537 28.5471C19.3743 27.8639 20.9655 27.6668 21.531 28.8099C22.2412 30.2684 20.5447 31.6349 20.2291 32.9357C19.2954 36.8776 24.1744 44.3146 25.4764 46.8111C25.8709 47.5732 26.0419 48.6506 25.2528 48.9922V49.0054Z" fill="#8C9DF4"/>
<path d="M142.82 75.416H132.236V41.1481H143.289C146.616 41.1481 149.463 41.8341 151.83 43.2063C154.197 44.5671 156.011 46.5248 157.273 49.0793C158.535 51.6227 159.166 54.6679 159.166 58.2152C159.166 61.7848 158.529 64.8579 157.256 67.4347C155.983 70.0003 154.13 71.9748 151.696 73.358C149.262 74.73 146.304 75.416 142.82 75.416ZM136.389 71.735H142.552C145.387 71.735 147.738 71.1884 149.602 70.0952C151.467 69.002 152.857 67.4458 153.773 65.4268C154.688 63.4078 155.146 61.0039 155.146 58.2152C155.146 55.4488 154.695 53.0672 153.79 51.0704C152.885 49.0626 151.534 47.5232 149.737 46.4523C147.939 45.3702 145.7 44.8293 143.022 44.8293H136.389V71.735ZM165.927 41.1481L176.11 69.9948H176.511L186.694 41.1481H191.048L178.453 75.416H174.166L161.573 41.1481H165.927ZM233.234 41.1481H237.99L247.502 57.1443H247.904L257.417 41.1481H262.173L249.78 61.2939V75.416H245.627V61.2939L233.234 41.1481ZM294.742 41.1481V75.416H290.722L272.033 48.5105H271.697V75.416H267.544V41.1481H271.563L290.321 68.1208H290.656V41.1481H294.742ZM307.205 41.1481V75.416H303.052V41.1481H307.205ZM315.533 75.416V41.1481H319.687V58.1483H320.088L335.496 41.1481H340.922L326.519 56.6089L340.922 75.416H335.897L323.974 59.4868L319.687 64.3058V75.416H315.533ZM373.625 58.2821C373.625 61.8964 372.972 65.0196 371.666 67.6523C370.36 70.2848 368.567 72.315 366.29 73.7428C364.012 75.1707 361.41 75.8846 358.486 75.8846C355.561 75.8846 352.96 75.1707 350.682 73.7428C348.404 72.315 346.611 70.2848 345.306 67.6523C344 65.0196 343.346 61.8964 343.346 58.2821C343.346 54.6679 344 51.5445 345.306 48.912C346.611 46.2794 348.404 44.2492 350.682 42.8214C352.96 41.3936 355.561 40.6797 358.486 40.6797C361.41 40.6797 364.012 41.3936 366.29 42.8214C368.567 44.2492 370.36 46.2794 371.666 48.912C372.972 51.5445 373.625 54.6679 373.625 58.2821ZM369.606 58.2821C369.606 55.3149 369.109 52.8106 368.115 50.7693C367.133 48.7279 365.799 47.183 364.113 46.1344C362.438 45.0859 360.562 44.5616 358.486 44.5616C356.409 44.5616 354.527 45.0859 352.841 46.1344C351.167 47.183 349.834 48.7279 348.839 50.7693C347.857 52.8106 347.365 55.3149 347.365 58.2821C347.365 61.2494 347.857 63.7536 348.839 65.795C349.834 67.8363 351.167 69.3813 352.841 70.4298C354.527 71.4784 356.409 72.0026 358.486 72.0026C360.562 72.0026 362.438 71.4784 364.113 70.4298C365.799 69.3813 367.133 67.8363 368.115 65.795C369.109 63.7536 369.606 61.2494 369.606 58.2821ZM380.403 41.1481L390.586 69.9948H390.987L401.17 41.1481H405.525L392.93 75.416H388.642L376.049 41.1481H380.403Z" fill="white"/>
<path d="M247.125 56.2453H245.152V54.5766H235.907V52.7765H230.423V50.7793H227.056V49.058H228.845V47.179H230.659V45.1556H232.382V41.1217H234.197V37.3901H235.894V35.4323H237.893V31.9635H239.786V28.0873H235.972V30.0188H234.21V31.9766H232.382V33.8555H228.858V35.5768H226.846V39.453H223.242V41.1217H219.77V43.2766H217.732V16.5508H214.247V18.6794H212.498V26.1821H210.564V31.9635H208.71V37.6135H206.764V43.2635H205.015V47.3236H203.016V45.3001H192.206V43.2766H182.895V47.0739H186.985V48.8478H188.681V52.3954H193.915V54.7343H197.65V60.4106H196.059V62.1712H194.415V63.9582H192.574V66.8095H188.694V71.2769H186.998V74.6801H184.907V76.559H183.158V80.6192H188.681V76.7693H192.219V75.1006H195.862V73.1953H201.385V69.5163H205.028V67.3351H208.513V66.0737H210.512V63.6429H212.511V67.3351H214.26V69.3192H217.653V73.1953H219.402V75.7313H221.69V78.5957H223.282V80.6192H226.622V69.5163H225.175V63.6297H228.66V62.0267H236.051V59.9769H241.509V58.3345H247.138V56.2847L247.125 56.2453ZM223.808 60.3974H221.664V71.2507H219.376V67.5979H217.732V63.9451H215.693V62.1581H214.102V60.3974H208.723V63.5903H203.292V65.7189H199.531V69.2666H195.875V71.2375H193.928V67.2825H195.875V65.7189H197.611V63.9188H199.531V61.6062H201.398V58.1637H203.042V54.2087H201.398V52.3823H197.413V48.8346H201.398V50.7661H208.723V48.8346H210.512V43.2635H212.511V47.0608H214.26V48.8346H217.745V47.0608H221.23V45.3395H223.098V43.2635H226.74V41.1086H228.884V43.2635H227.766V45.1424H225.307V47.1659H223.466V49.0448H221.519V54.5766H229.147V56.2453H232.514V58.2951H226.99V60.3974H223.847H223.808Z" fill="#3D44FB"/>
<path d="M259.485 96.4303L263.849 86.7344L268.446 86.6831L268.655 105.34L266.115 105.369L265.93 88.869L265.677 88.8719L261.338 98.5674L257.451 98.6108L252.871 89.0149L252.643 89.0174L252.827 105.517L250.287 105.545L250.078 86.8881L254.677 86.8367L259.23 96.4331L259.485 96.4303ZM275.707 100.159L274.239 105.278L271.699 105.306L277.079 86.5867L283.177 86.5187L288.975 105.114L286.434 105.142L284.852 100.057L275.707 100.159ZM278.959 88.8506L276.367 97.8666L284.141 97.7798L281.348 88.8239L278.959 88.8506ZM306.574 102.455L306.6 104.739L304.824 105.013C303.452 105.028 302.199 104.23 301.496 102.765L300.3 100.291C300.038 99.6588 299.628 99.308 299.221 99.2871L294.495 99.3398L294.559 105.051L292.018 105.08L291.811 86.4223L300.168 86.329C303.75 86.2891 306.679 89.1505 306.72 92.7297C306.75 95.522 304.974 97.9536 302.495 98.8698L303.718 101.496C304.004 102.128 304.39 102.479 304.796 102.474L306.574 102.455ZM300.196 88.7405L294.378 88.8054L294.468 96.9283L300.287 96.8634C302.37 96.8401 304.203 94.8648 304.179 92.7581C304.156 90.6258 302.304 88.717 300.196 88.7405ZM325.739 102.241L325.764 104.525L324.752 104.79C323.38 104.806 322.125 104.007 321.423 102.543L318.952 97.442C318.691 96.8103 318.202 96.3335 317.618 96.3399L312.105 96.4015L312.2 104.854L309.659 104.883L309.45 86.2255L311.991 86.1971L312.079 94.1169L317.136 94.0604C317.643 94.0548 318.147 93.6684 318.394 93.031L320.502 88.3869C321.172 86.907 322.408 86.0808 323.78 86.0656L324.545 86.3109L324.57 88.5954L323.809 88.604C323.402 88.6085 323.025 88.9681 322.753 89.6058L320.694 94.2493C320.546 94.5555 320.27 94.8379 320.067 94.9417C320.426 95.1408 320.99 95.6677 321.224 96.1728L323.644 101.274C323.931 101.905 324.316 102.256 324.723 102.252L325.739 102.241ZM331.33 102.483L343.017 102.353L343.041 104.51L328.813 104.669L328.605 86.0117L342.07 85.8614L342.093 87.8921L331.168 88.014L331.235 94.0301L340.128 93.9308L340.15 95.9615L331.257 96.0608L331.33 102.483ZM354.022 88.0128L354.205 104.385L351.664 104.414L351.481 88.0412L344.875 88.1149L344.85 85.8304L360.602 85.6546L360.628 87.9391L354.022 88.0128ZM366.184 85.5923L366.393 104.249L363.852 104.278L363.643 85.6207L366.184 85.5923ZM382.539 101.911L382.355 85.4117L384.896 85.3835L385.103 104.041L380.327 104.094L372.394 87.6808L371.81 87.6874L371.994 104.187L369.454 104.215L369.244 85.5581L374.021 85.5048L381.955 101.918L382.539 101.911ZM390.165 94.6417C390.211 98.7285 393.85 101.48 397.356 101.441C399.236 101.42 400.879 100.691 402.112 99.5858L402.066 95.3974L395.968 95.4655L395.943 93.1809L404.58 93.0846L404.664 100.598C402.882 102.624 400.255 103.948 397.384 103.98C392.201 104.038 387.682 99.8738 387.624 94.6701C387.567 89.4663 391.991 85.2027 397.173 85.1449C399.409 85.1199 401.499 85.6551 403.545 86.9016L403.581 89.9731L401.344 89.998L401.022 88.3768C399.923 87.856 398.625 87.6674 397.202 87.6833C393.696 87.7223 390.119 90.5549 390.165 94.6417Z" fill="white"/>
<defs>
<linearGradient id="paint0_linear_49_846" x1="23.0817" y1="18.7321" x2="95.1857" y2="97.856" gradientUnits="userSpaceOnUse">
<stop stop-color="#3D44FB"/>
<stop offset="1" stop-color="#000060"/>
</linearGradient>
</defs>
</svg>
