<svg width="370" height="93" viewBox="0 0 370 93" fill="none" xmlns="http://www.w3.org/2000/svg">
<path d="M15.1 53.8278L0 53.7886L0.122196 7.55206L15.7005 7.59252C20.2707 7.60439 24.1932 8.54022 27.4679 10.4C30.7427 12.2447 33.2486 14.8927 34.9856 18.3439C36.7378 21.7801 37.6076 25.8988 37.5949 30.7001C37.5822 35.5164 36.683 39.6531 34.8974 43.1102C33.1269 46.5673 30.5691 49.2247 27.2238 51.0823C23.8785 52.9249 19.8372 53.8401 15.1 53.8278ZM7.05366 47.7112L14.7289 47.7311C18.2819 47.7404 21.2368 47.0858 23.5938 45.7674C25.9507 44.434 27.7171 42.5045 28.8929 39.979C30.0688 37.4384 30.6616 34.3395 30.6712 30.6821C30.6808 27.0548 30.1044 23.9754 28.9419 21.4438C27.7947 18.9122 26.0764 16.9887 23.7872 15.6734C21.4979 14.358 18.6527 13.6959 15.2516 13.687L7.14364 13.666L7.05366 47.7112Z" fill="white"/>
<path d="M44.6629 6.07653L57.5453 43.7677L58.0691 43.7691L71.1505 6.14532L78.7575 6.16507L61.8499 52.358L53.7191 52.3369L37.056 6.05678L44.6629 6.07653Z" fill="white"/>
<path d="M124.023 27.4145C124.01 32.3512 123.087 36.5932 121.256 40.1405C119.425 43.6727 116.92 46.3904 113.741 48.2937C110.578 50.1819 106.985 51.1208 102.961 51.1103C98.9224 51.0998 95.3188 50.1423 92.1505 48.2376C88.9974 46.3179 86.5145 43.5797 84.7018 40.023C82.8892 36.4662 81.9894 32.227 82.0024 27.3054C82.0155 22.3687 82.9377 18.1342 84.769 14.6019C86.6004 11.0546 89.0977 8.33689 92.2609 6.44868C95.4393 4.54545 99.0479 3.59908 103.087 3.60957C107.11 3.62001 110.699 4.58508 113.852 6.50475C117.02 8.40941 119.511 11.1401 121.323 14.6969C123.136 18.2386 124.036 22.4778 124.023 27.4145ZM117.054 27.3964C117.063 23.6337 116.457 20.4638 115.234 17.8869C114.026 15.295 112.361 13.3341 110.239 12.004C108.132 10.659 105.742 9.98306 103.07 9.97612C100.382 9.96914 97.9817 10.6327 95.8676 11.9667C93.7536 13.2857 92.0783 15.238 90.8416 17.8236C89.6201 20.3941 89.0043 23.5608 88.9944 27.3235C88.9845 31.0863 89.5834 34.2636 90.7912 36.8555C92.0143 39.4324 93.6793 41.3934 95.7863 42.7384C97.8933 44.0683 100.291 44.7368 102.978 44.7438C105.65 44.7507 108.043 44.0947 110.157 42.7757C112.287 41.4417 113.962 39.4894 115.184 36.9188C116.42 34.3333 117.044 31.1591 117.054 27.3964Z" fill="white"/>
<path d="M126.63 0L134.187 2.58475L138.789 26.3936L139.263 26.5556L157.697 10.6262L165.254 13.2109L140.016 34.2886L134.043 51.4474L127.412 49.1793L133.385 32.0206L126.63 0Z" fill="white"/>
<path d="M202.339 5.26252L202.217 51.499L195.749 51.4822L172.129 17.5109L171.697 17.5098L171.607 51.4195L164.57 51.4012L164.692 5.16475L171.205 5.18167L194.848 39.1982L195.28 39.1994L195.37 5.24442L202.339 5.26252Z" fill="white"/>
<path d="M219.643 5.30746L219.521 51.5439L212.483 51.5257L212.605 5.28918L219.643 5.30746Z" fill="white"/>
<path d="M229.769 51.5706L229.892 5.33407L236.929 5.35235L236.871 27.4321L237.44 27.4336L257.062 5.40463L265.922 5.42764L247.055 26.1942L265.868 51.6643L257.396 51.6423L242.373 30.9457L236.845 37.2077L236.807 51.5888L229.769 51.5706Z" fill="white"/>
<path d="M310.62 28.6621C310.607 33.5988 309.685 37.8408 307.853 41.3881C306.022 44.9204 303.517 47.6381 300.339 49.5413C297.175 51.4295 293.582 52.3684 289.558 52.358C285.52 52.3475 281.916 51.3899 278.748 49.4852C275.595 47.5656 273.112 44.8274 271.299 41.2706C269.486 37.7139 268.587 33.4747 268.6 28.553C268.613 23.6163 269.535 19.3818 271.366 15.8496C273.198 12.3023 275.695 9.58453 278.858 7.69632C282.037 5.79309 285.645 4.84671 289.684 4.8572C293.708 4.86765 297.296 5.83271 300.449 7.75238C303.617 9.65704 306.108 12.3878 307.921 15.9445C309.733 19.4862 310.633 23.7254 310.62 28.6621ZM303.651 28.644C303.661 24.8813 303.054 21.7115 301.831 19.1346C300.623 16.5427 298.958 14.5817 296.836 13.2517C294.729 11.9067 292.339 11.2307 289.667 11.2238C286.98 11.2168 284.579 11.8803 282.465 13.2144C280.351 14.5334 278.675 16.4857 277.439 19.0712C276.217 21.6418 275.602 24.8084 275.592 28.5712C275.582 32.3339 276.181 35.5112 277.388 38.1031C278.612 40.68 280.277 42.641 282.384 43.986C284.491 45.316 286.888 45.9844 289.575 45.9914C292.248 45.9984 294.641 45.3423 296.755 44.0233C298.884 42.6893 300.559 40.737 301.781 38.1665C303.017 35.5809 303.641 32.4068 303.651 28.644Z" fill="white"/>
<path d="M353.175 15.8088L324.64 43.8017L324.868 44.2691L364.718 39.441L368.033 46.2279L343.384 48.8145L318.736 51.4011L315.193 44.1469L349.86 9.02194L353.175 15.8088Z" fill="white"/>
<path d="M170.177 88.4102H166.426V62.1492H170.177V65.9008H173.929V69.6523H170.177V88.4102ZM177.68 65.9008H181.432V62.1492H185.184V88.4102H181.432V69.6523H177.68V65.9008ZM177.68 77.1555H173.929V69.6523H177.68V77.1555ZM203.945 65.9008H192.69V62.1492H203.945V65.9008ZM192.69 88.4102H188.939V65.9008H192.69V77.1555H203.945V65.9008H207.697V88.4102H203.945V80.907H192.69V88.4102ZM215.203 88.4102H211.452V62.1492H226.458V65.9008H215.203V73.4039H226.458V77.1555H222.707V80.907H218.955V77.1555H215.203V88.4102ZM230.21 73.4039H226.458V65.9008H230.21V73.4039ZM226.458 84.6586H222.707V80.907H226.458V84.6586ZM230.21 88.4102H226.458V84.6586H230.21V88.4102ZM237.717 88.4102H233.965V62.1492H237.717V73.4039H241.468V77.1555H237.717V88.4102ZM252.723 65.9008H248.971V62.1492H252.723V65.9008ZM248.971 69.6523H245.22V65.9008H248.971V69.6523ZM245.22 73.4039H241.468V69.6523H245.22V73.4039ZM245.22 80.907H241.468V77.1555H245.22V80.907ZM248.971 84.6586H245.22V80.907H248.971V84.6586ZM252.723 88.4102H248.971V84.6586H252.723V88.4102ZM275.236 88.4102H256.478V62.1492H275.236V65.9008H260.23V73.4039H267.733V77.1555H260.23V84.6586H275.236V88.4102ZM286.494 65.9008H278.991V62.1492H297.749V65.9008H290.246V88.4102H286.494V65.9008ZM309.007 65.9008H305.256V62.1492H316.51V65.9008H312.759V84.6586H316.51V88.4102H305.256V84.6586H309.007V65.9008ZM327.769 88.4102H324.017V62.1492H327.769V69.6523H331.52V73.4039H327.769V88.4102ZM335.272 77.1555H339.023V62.1492H342.775V88.4102H339.023V80.907H335.272V77.1555ZM335.272 77.1555H331.52V73.4039H335.272V77.1555ZM361.537 65.9008H350.282V62.1492H361.537V65.9008ZM350.282 84.6586H346.53V65.9008H350.282V84.6586ZM365.288 69.6523H361.537V65.9008H365.288V69.6523ZM361.537 77.1555H357.785V73.4039H365.288V84.6586H361.537V77.1555ZM361.537 88.4102H350.282V84.6586H361.537V88.4102Z" fill="white"/>
</svg>
