<svg width="193" height="191" viewBox="0 0 193 191" fill="none" xmlns="http://www.w3.org/2000/svg">
<g clip-path="url(#clip0_48_391)">
<path d="M107.506 130.785L104.7 122.877L113.47 119.764L109.202 107.738L112.126 106.7L110.242 101.391L118.147 98.5861L114.955 89.5923L122.263 86.9988L118.227 75.6228L125.535 73.0293L118.614 53.5251L103.997 58.7121L108.034 70.0895L100.726 72.683L103.917 81.6755L96.6085 84.2689L100.338 94.7792L92.4332 97.5844L96.701 109.611L93.7777 110.649L96.5847 118.559L94.2028 119.404L90.8576 109.977L81.9786 113.128L79.4411 105.977L73.7018 108.014L71.3179 101.296L56.7011 106.483L61.7761 120.785L67.5154 118.748L69.8993 125.466L78.7768 122.316L81.3143 129.466L89.5444 126.546L92.8896 135.972L107.506 130.785Z" fill="#3D44FB"/>
<path d="M91.2818 168.872L93.358 174.722L110.036 168.804L132.062 160.988L148.739 155.069L146.663 149.219L161.28 144.032L156.397 130.272L141.781 135.459L143.857 141.31L127.179 147.228L105.153 155.044L88.4753 160.963L86.3991 155.112L71.7822 160.299L76.665 174.059L91.2818 168.872Z" fill="#3D44FB"/>
<path d="M25.8256 77.1731L11.2087 82.36L18.9522 104.181L19.0712 104.517L19.0893 104.567L30.4179 136.492L30.436 136.543L30.5555 136.879L38.299 158.7L52.9158 153.513L57.1646 165.486L71.7828 160.299L64.8616 140.795L50.2433 145.982L45.1723 131.692L45.0528 131.356L45.0348 131.305L33.7061 99.3805L33.688 99.3296L33.5691 98.9943L28.4976 84.7029L43.1159 79.5154L36.1951 60.0127L21.5768 65.2001L25.8256 77.1731Z" fill="#3D44FB"/>
<path d="M166.767 113.112L181.384 107.925L173.521 85.767L158.904 90.954L164.095 105.581L149.477 110.768L156.398 130.272L171.016 125.085L166.767 113.112Z" fill="#3D44FB"/>
<path d="M147.54 58.928L158.887 90.903L173.504 85.7161L162.038 53.4058L154.294 31.5845L139.678 36.7715L135.429 24.7985L120.811 29.9859L127.731 49.4887L142.35 44.3012L147.421 58.5927L147.54 58.928Z" fill="#3D44FB"/>
<path d="M115.926 16.225L101.31 21.412L106.193 35.173L120.81 29.986L115.926 16.225Z" fill="#3D44FB"/>
<path d="M82.5558 21.4796L60.5301 29.2957L43.8522 35.214L45.9284 41.0647L31.3115 46.2517L36.1948 60.0127L50.8116 54.8257L48.7354 48.975L65.4134 43.0567L87.439 35.2406L104.117 29.3223L101.31 21.412L99.2337 15.5613L82.5558 21.4796Z" fill="#3D44FB"/>
</g>
<defs>
<clipPath id="clip0_48_391">
<rect width="151.828" height="148.032" fill="white" transform="translate(0 50.7755) rotate(-19.5378)"/>
</clipPath>
</defs>
</svg>
