<svg width="179" height="154" viewBox="0 0 179 154" fill="none" xmlns="http://www.w3.org/2000/svg">
<g clip-path="url(#clip0_47_388)">
<path d="M179 54.6165H173.128V37.9872H164.603V27.2792H160.275V13.0067H156.122V0H145.106V6.95437H135.678V14.6798H125.463V20.994H117.58V26.028H107.846V34.0008H101.245V49.1025H112.261H118.862V44.0686H128.596V31.0037H135.678V34.83H131.452V45.9454H127.314V56.4642H119.314V78.9277H113.325V95.8772H109.172V87.1042H104.378V79.9025H95.9262V68.4089V64.117H79.562V53.4817H67.7589V44.7233H56.014V55.6059H47.7081V71.0422H42.6371V79.9025H32.1454V98.0159H23.1109V114.165H8.45164V143.263H0V154H19.3659V150.392H28.9833V134.257H45.1726V108.113H54.3965V89.6066H63.1979V74.1557H67.7589V87.497H78.8917V96.3573H84.1813H88.1011V107.851H98.1557V115.038H105.646V123.811H111.897V130.111H117.988V123.811H124.37V107.473H130.33V95.5426V89.5775H142.468V63.375V56.6534H149.259V41.5516H153.587V55.8241H157.405V72.177H166.818V68.6417H179V54.6165Z" fill="#3D44FB"/>
</g>
<defs>
<clipPath id="clip0_47_388">
<rect width="179" height="154" fill="white"/>
</clipPath>
</defs>
</svg>
