<svg width="186" height="175" viewBox="0 0 186 175" fill="none" xmlns="http://www.w3.org/2000/svg">
<g clip-path="url(#clip0_45_385)">
<path d="M182.452 109.973L176.907 109.805L177.04 105.412L151.052 104.624L151.196 99.8847L135.781 99.4173L135.94 94.1595L126.477 93.8725L126.614 89.3411L131.642 89.4935L131.792 84.547L136.893 84.7017L137.055 79.3747L141.897 79.5216L142.219 68.9022L147.321 69.0568L147.619 59.233L152.387 59.3776L152.544 54.2236L158.162 54.394L158.439 45.262L163.763 45.4234L164.072 35.2191L153.352 34.894L153.198 39.9789L148.244 39.8286L148.088 44.9827L142.949 44.8269L142.799 49.7734L132.892 49.473L132.755 54.0044L127.099 53.8328L126.79 64.0372L116.661 63.73L116.528 68.1231L106.768 67.8271L106.596 73.5L100.867 73.3263L103 2.96836L93.2039 2.6713L93.034 8.27503L88.1174 8.12594L87.5185 27.8774L82.0844 27.7126L81.6229 42.9326L76.4106 42.7745L75.9595 57.6486L70.4885 57.4827L70.0374 72.3568L65.1209 72.2077L64.7967 82.8963L59.1778 82.7259L59.3394 77.3989L28.9898 76.4786L29.1513 71.1516L2.97899 70.3579L2.67585 80.3547L14.1725 80.7033L14.0309 85.3731L18.7995 85.5177L18.5163 94.8573L33.229 95.3034L33.0423 101.461L43.5408 101.779L43.0877 116.722L38.6147 116.587L38.4742 121.222L33.8533 121.082L33.7107 125.786L28.5354 125.629L28.3077 133.135L17.4026 132.805L17.046 144.566L12.2773 144.421L12.0056 153.38L6.12791 153.202L5.97791 158.148L1.02439 157.998L0.700268 168.687L16.2262 169.157L16.5336 159.022L26.4776 159.324L26.6108 154.931L36.8505 155.241L37.0026 150.226L52.5286 150.696L52.8223 141.011L63.062 141.321L63.2362 135.579L73.0323 135.876L73.133 132.556L78.7519 132.726L78.946 126.327L84.5649 126.497L84.2702 136.217L89.1867 136.366L89.0283 141.59L98.5657 141.879L98.2563 152.083L103.173 152.232L102.97 158.908L109.403 159.103L109.174 166.644L113.647 166.78L113.485 172.107L122.875 172.391L123.761 143.162L119.695 143.039L120.165 127.542L129.961 127.839L130.089 123.619L150.864 124.249L151.028 118.853L166.369 119.318L166.5 114.994L182.322 115.474L182.485 110.078L182.452 109.973ZM116.577 118.951L110.552 118.768L109.685 147.34L103.253 147.145L103.545 137.529L98.9239 137.389L99.2155 127.772L93.4857 127.599L93.6283 122.894L89.1553 122.759L89.2959 118.123L74.1766 117.665L73.9217 126.071L58.6545 125.608L58.4846 131.211L47.9121 130.891L47.6289 140.23L37.3522 139.919L37.1948 145.107L31.7238 144.941L32.0395 134.53L37.5106 134.695L37.6354 130.579L42.515 130.727L42.6587 125.988L48.0558 126.152L48.2404 120.064L53.4897 120.223L53.7645 111.16L58.3853 111.3L58.7011 100.888L54.0802 100.748L54.226 95.9401L43.0252 95.6005L43.3084 86.2609L54.5093 86.6006L54.3551 91.6854L74.9454 92.3098L75.0996 87.225L80.1271 87.3774L80.5718 72.7109L86.1908 72.8813L85.8876 82.878L90.8042 83.0271L90.6626 87.6969L100.459 87.994L100.6 83.3242L110.396 83.6212L110.534 79.0898L115.783 79.249L115.949 73.7837L126.189 74.0942L126.361 68.4213L132.386 68.604L132.214 74.2769L129.072 74.1816L128.922 79.1281L122.009 78.9185L121.848 84.2455L116.672 84.0885L116.522 89.035L111.051 88.8691L110.61 103.432L132.05 104.082L131.917 108.475L141.381 108.762L141.217 114.158L125.691 113.687L125.523 119.222L116.688 118.954L116.577 118.951Z" fill="#3D44FB"/>
</g>
<defs>
<clipPath id="clip0_45_385">
<rect width="180.591" height="168.674" fill="white" transform="translate(5.11254) rotate(1.73692)"/>
</clipPath>
</defs>
</svg>
