<svg width="24" height="23" viewBox="0 0 24 23" fill="none" xmlns="http://www.w3.org/2000/svg">
<path d="M1.5 9.54596C0.671573 9.54596 0 10.2175 0 11.046C0 11.8744 0.671573 12.546 1.5 12.546V11.046V9.54596ZM23.5607 12.1066C24.1464 11.5208 24.1464 10.5711 23.5607 9.9853L14.0147 0.439358C13.4289 -0.146429 12.4792 -0.146429 11.8934 0.439358C11.3076 1.02514 11.3076 1.97489 11.8934 2.56068L20.3787 11.046L11.8934 19.5312C11.3076 20.117 11.3076 21.0668 11.8934 21.6526C12.4792 22.2383 13.4289 22.2383 14.0147 21.6526L23.5607 12.1066ZM1.5 11.046V12.546H22.5V11.046V9.54596H1.5V11.046Z" fill="white"/>
</svg>
