<svg width="54" height="53" viewBox="0 0 54 53" fill="none" xmlns="http://www.w3.org/2000/svg">
<g clip-path="url(#clip0_72_70)">
<path d="M53.6803 19.3018C53.1727 18.788 52.5357 18.868 51.4838 19.2945C51.7327 17.3532 50.3245 15.504 48.5747 14.5999C47.2909 13.9383 45.8559 13.6765 44.4062 13.5263C44.084 13.5166 43.4592 13.502 42.7466 13.4996C43.3396 10.9451 43.696 7.96646 43.5227 5.35378C43.4031 3.53121 42.954 1.49778 41.3994 0.525908C40.2596 -0.184217 38.7587 -0.12605 37.5189 0.399879C36.5012 0.831285 35.6348 1.54141 34.8538 2.32909C36.0204 3.80024 36.8502 5.57918 37.4164 7.34116C38.046 9.30188 38.3828 11.7788 37.5555 13.7492C37.5408 13.7808 37.5335 13.822 37.3602 13.8535C37.3602 13.8535 37.1626 13.8777 37.1577 13.8607C36.9478 13.7904 36.7721 13.5529 36.8892 13.2912C37.6897 11.4856 37.2089 9.25826 36.6208 7.46477C36.0472 5.71975 35.3224 3.82447 33.9898 2.52056C32.4059 0.971856 29.7213 0.302933 28.0861 1.72318C27.5272 2.21033 26.7389 3.09011 26.4753 3.78085C25.4039 6.57772 25.6333 9.44972 26.0531 12.4138C26.2654 13.9092 26.9585 15.4579 27.637 16.8103C28.3155 18.1627 29.4699 19.3478 30.9391 19.7405C30.3558 20.9111 29.7725 22.0817 29.1868 23.2499C29.1038 23.4171 29.0111 23.5916 28.8475 23.6764C28.6523 23.7782 28.4156 23.7201 28.2032 23.6643C24.5424 22.6925 20.679 22.4743 16.9278 23.0269C15.71 19.2364 14.4604 15.6615 11.7733 12.7095C9.46699 10.1768 7.33638 11.7304 6.27717 10.4264C5.25945 9.17101 6.07949 7.96404 4.83236 7.50355C3.9025 7.16181 2.23559 8.36878 3.36313 9.56363C4.04161 10.281 4.61759 11.1535 4.50288 12.1303C4.38329 13.153 3.58767 13.9601 3.21914 14.9199C2.48697 16.8273 3.53153 18.9116 4.54193 20.6857C5.33999 22.089 6.1405 23.4898 6.94101 24.8907C7.1875 25.3221 7.73663 25.9522 7.67318 26.4806C7.6146 26.9508 7.10208 27.2174 6.77017 27.4912C5.94281 28.1747 5.2619 29.0036 4.6908 29.9076C3.51445 31.7738 2.81157 33.8969 2.16237 35.9885C1.21787 39.0326 0.263613 42.1082 0.0293182 45.2831C-0.0438989 46.2647 -0.0243743 47.3263 0.5516 48.1261C0.942091 48.6689 1.54979 49.0252 2.17702 49.2555C3.99768 49.9268 6.1283 49.5608 7.69514 48.4411C8.18081 48.0267 8.62988 47.5735 9.0399 47.0839C9.0521 47.0645 9.0643 47.0475 9.0765 47.0306C9.0765 47.0306 9.07894 47.0306 9.08138 47.0306C9.34252 46.7155 9.58902 46.3883 9.81844 46.0514C11.9832 42.8619 13.0497 38.972 13.6086 35.1814C13.6086 35.1814 13.6648 34.1902 14.3018 34.1126C14.3018 34.1126 14.3018 34.1126 14.3042 34.1126C14.519 34.1005 14.6923 34.2895 14.6581 34.5004C14.4702 35.6662 14.0504 37.273 13.9015 37.942C13.1937 41.1193 12.0638 44.5415 9.9966 47.1784C12.4347 47.5444 15.0315 47.685 16.9888 46.2744C18.4044 45.254 19.2024 43.5939 19.7149 41.9337C20.2982 40.0457 20.9206 36.6017 20.945 34.4471C22.4313 34.5683 23.6784 34.6991 24.086 34.7961C24.3935 34.8688 24.723 34.9682 24.9133 35.2178C25.0866 35.4432 25.1135 35.7461 25.1354 36.0297C25.3868 39.2701 26.0702 42.4766 27.1684 45.54C27.8664 47.4862 28.7597 49.4203 30.2216 50.889C31.6859 52.3577 33.8117 53.2884 35.8593 52.9176C38.0534 52.5225 39.2566 51.5555 39.5323 50.1159C39.7178 49.1561 39.7691 48.1648 39.7496 47.1905C39.6763 43.5551 38.6757 39.9342 37.2138 36.6186C35.7812 33.371 33.7873 30.2033 31.0319 27.9057C30.6389 27.5785 31.188 27.0065 31.5785 27.3313C33.1527 28.6425 34.4682 30.2469 35.5859 31.9507C35.6518 32.0501 35.7129 32.1495 35.7763 32.2513C35.8032 32.2149 35.8398 32.181 35.8861 32.1519C37.1821 31.3448 38.1046 29.847 38.5293 28.4146C38.5903 28.2111 38.8368 28.0681 39.0686 28.148C39.1467 28.1747 39.3078 28.3153 39.3005 28.4583C39.3005 28.4631 39.3005 28.4655 39.3005 28.4704C39.3054 28.5213 39.3005 28.5819 39.2883 28.6522C38.9417 30.3027 37.7654 31.9168 36.3059 32.8257C36.2595 32.8547 36.2107 32.8741 36.1644 32.8814C38.0021 35.9231 39.32 39.3186 40.0253 42.7819C40.3914 44.5779 40.6038 46.4174 40.533 48.2521C40.4964 49.1803 40.4061 50.1255 40.1108 51.0126C39.9692 51.4392 39.835 51.7494 39.608 52.1275C40.2279 52.3456 40.8649 52.4401 41.5165 52.5516C43.7619 52.9297 46.4806 52.4668 47.5496 50.4697C48.2037 49.2458 48.0621 47.7698 47.8962 46.3956C47.4959 43.097 47.0493 39.7791 45.9925 36.6283C44.9358 33.4776 43.22 30.4699 40.6501 28.3444C40.3792 28.1214 39.9619 27.7748 39.5763 27.5106C39.6861 26.9702 39.7666 26.4127 39.7813 26.3206L40.2133 23.136C42.0168 23.977 44.0035 24.7501 46.056 24.658C47.8522 24.578 50.4759 23.9067 50.9371 22.1811C51.7181 23.0051 52.7505 23.4147 53.4875 22.5398C53.756 22.2198 53.8927 21.8078 53.8975 21.391C53.9049 20.613 54.2197 19.8616 53.6754 19.3066L53.6803 19.3018ZM6.91416 32.1567C6.038 34.3089 5.36928 35.9788 4.78843 37.9007C4.00012 40.5086 3.4876 42.6317 2.64317 45.1838C2.48697 45.6515 1.82558 46.4198 1.56199 46.1799C0.312424 45.0505 4.71521 31.6647 6.24544 30.6129C6.59445 30.3705 6.99226 30.419 7.12161 30.7559C7.29977 31.2188 7.09964 31.7035 6.91416 32.1592V32.1567ZM8.32969 24.1854C8.01242 24.3163 7.71467 23.9309 7.53406 23.6377C6.2967 21.6576 5.0935 19.6605 4.31496 17.4283C3.97572 16.454 4.10751 14.5587 5.06177 13.8729C5.52792 13.536 6.32354 13.4439 6.59933 14.0255C6.94833 14.7647 6.08437 15.4337 5.92085 16.0905C5.42541 18.0657 7.81961 21.8248 8.45416 23.0924C8.64696 23.4753 8.72262 24.023 8.32725 24.1854H8.32969ZM24.1494 25.5523C21.5088 25.0603 17.9431 25.945 17.7674 24.7816C17.6258 23.8509 22.2556 23.8122 24.6839 24.3042C25.3404 24.435 27.3027 24.9828 27.4052 25.4166C27.4686 25.6905 27.2441 25.8601 26.9659 25.9135C26.6876 25.9644 24.8011 25.6735 24.1494 25.5523ZM32.5474 49.8177C32.9648 49.1173 33.7214 49.6336 34.0704 49.8832C34.2095 49.9826 34.3461 50.0989 34.4194 50.254C34.6219 50.6757 34.2461 51.2089 33.7848 51.2816C33.3211 51.3568 32.8598 51.0756 32.5792 50.7024C32.4157 50.4842 32.4352 50.0068 32.5499 49.8153L32.5474 49.8177ZM31.8568 45.8842C32.4352 47.4765 32.5548 48.652 31.8616 48.8192C30.5389 49.1391 29.4528 46.3132 28.889 44.6796C28.1105 42.4232 27.5492 40.0626 27.2172 37.6608C27.1343 37.0525 26.5973 33.1965 27.8786 34.8833C28.4448 35.6274 28.7768 36.8586 29.0916 37.7917C30.0093 40.4965 30.861 43.1479 31.8543 45.8818L31.8568 45.8842ZM30.678 16.2189C30.39 16.6406 29.5724 15.647 29.2966 15.2155C27.7542 12.7943 27.2539 9.66785 27.3344 8.62084C27.4467 7.16181 28.7377 7.05275 28.8158 8.04402C29.2551 13.5384 30.9977 15.7463 30.6755 16.2189H30.678ZM32.423 4.82058C32.2595 5.19625 31.8397 4.89572 31.7689 4.82543C31.1075 4.16378 30.0361 3.93354 29.0843 5.82397C28.9842 6.02028 28.7572 6.15601 28.5351 6.15601C28.1471 6.15358 27.9543 5.68097 27.9592 5.29562C27.9763 3.94565 29.055 2.63932 30.3461 2.52783C30.8757 2.4842 31.476 2.64416 31.8372 3.02952C32.1984 3.4173 32.3717 3.776 32.4547 4.2995C32.4815 4.47401 32.4938 4.6582 32.4205 4.82058H32.423ZM50.017 19.0085C49.8608 20.1791 48.1036 21.2383 47.8425 20.6033C47.7717 20.4336 48.1158 20.2519 48.2989 20.121C50.0414 18.8752 48.5332 17.1496 48.4941 16.9678C48.3843 16.4492 49.1482 16.8321 49.4703 17.249C49.8486 17.7337 50.1 18.3929 50.017 19.0085Z" fill="white"/>
</g>
<defs>
<clipPath id="clip0_72_70">
<rect width="54" height="53" fill="white"/>
</clipPath>
</defs>
</svg>
