<svg width="809" height="962" viewBox="0 0 809 962" fill="none" xmlns="http://www.w3.org/2000/svg">
<path fill-rule="evenodd" clip-rule="evenodd" d="M560.575 38.2992C566.103 40.2149 571.581 42.2865 577.008 44.514C579.102 46.1385 581.368 47.5171 583.809 48.6496C597.662 58.0516 608.506 70.1636 616.343 84.9861C618.362 89.5755 620.379 94.1609 622.39 98.7408C624.681 106.676 626.232 114.787 627.044 123.072C627.106 127.868 627.173 132.673 627.241 137.487C626.372 144.558 625.517 151.566 624.678 158.514C624.233 158.646 623.901 158.933 623.685 159.375C622.952 163.804 621.997 168.203 620.816 172.57C617.349 184.489 613.32 196.171 608.734 207.61C607.785 208.135 607.664 208.793 608.379 209.591C607.528 210.789 606.69 212.01 605.863 213.246C603.199 219.052 600.647 224.9 598.208 230.795C593.554 239.758 588.982 248.834 584.494 258.017C584.143 257.92 583.792 257.824 583.44 257.727C580.801 263.374 577.961 268.894 574.924 274.284C571.351 279.406 568.018 284.662 564.923 290.055C564.064 290.745 563.279 291.538 562.569 292.431C562.74 292.732 562.908 293.027 563.079 293.327C560.404 296.009 558.3 299.085 556.766 302.553C556.414 302.456 556.063 302.36 555.711 302.263C555.587 303.143 555.241 303.933 554.684 304.626C550.237 311.269 545.463 317.641 540.362 323.745C539.988 323.979 539.605 323.998 539.211 323.807C537.332 326.798 535.173 329.606 532.74 332.233C530.123 334.715 527.648 337.312 525.31 340.018C524.936 340.252 524.553 340.271 524.159 340.08C524.088 340.737 523.809 341.287 523.325 341.74C521.511 343.46 519.762 345.247 518.074 347.1C515.901 348.434 513.948 350.041 512.216 351.916C511.842 352.149 511.459 352.169 511.065 351.978C509.458 353.796 507.681 355.451 505.734 356.938C503.747 357.926 501.95 359.198 500.342 360.747C499.387 361.347 498.372 361.824 497.303 362.18C496.483 363.183 495.547 364.06 494.501 364.812C490.153 367.31 485.762 369.758 481.335 372.155C480.14 372.737 478.893 373.15 477.594 373.394C477.021 373.622 476.656 374.029 476.505 374.607C475.182 374.47 474.17 374.948 473.466 376.04C470.931 376.405 468.556 377.265 466.333 378.615C464.856 378.875 463.41 379.105 461.985 379.311C461.889 379.662 461.792 380.013 461.696 380.365C458.607 380.59 455.558 381.135 452.552 382.01C451.915 382.194 451.299 382.153 450.698 381.879C450.602 382.23 450.505 382.582 450.409 382.933C445.334 383.3 440.283 383.802 435.256 384.439C434.488 384.482 433.893 384.821 433.464 385.459C433.458 388.798 433.172 392.121 432.615 395.429C432.802 395.56 432.946 395.724 433.045 395.925C431.818 407.878 430.597 419.889 429.383 431.956C428.7 432.463 428.598 433.067 429.076 433.761C428.642 436.665 428.164 439.557 427.638 442.436C433.677 442.436 439.679 442.131 445.65 441.526C451.538 441.473 457.411 441.639 463.276 442.022C464.478 442.118 465.645 442 466.777 441.661C478.155 442.338 489.528 443.13 500.892 444.041C501.178 444.305 501.498 444.517 501.849 444.682C504.221 444.797 506.558 445 508.864 445.286C515.09 446.532 521.344 447.622 527.62 448.549C537.408 450.984 547.127 453.654 556.786 456.561C557.689 456.865 558.427 457.382 559.005 458.115C562.083 451.478 565.359 444.819 568.838 438.141C569.933 438.034 570.105 437.639 569.351 436.959C570.991 434.47 572.625 431.959 574.255 429.425C575.556 426.865 576.823 424.315 578.057 421.777C578.408 421.874 578.759 421.971 579.111 422.067C579.295 420.957 579.704 419.936 580.331 419.001C582.887 414.76 585.491 410.562 588.137 406.406C588.325 406.284 588.533 406.217 588.761 406.2C593.478 398.781 598.477 391.59 603.758 384.621C604.11 384.718 604.461 384.814 604.813 384.911C604.91 384.144 605.219 383.473 605.743 382.899C614.384 371.834 623.787 361.443 633.959 351.724C634.333 351.49 634.716 351.471 635.11 351.662C635.871 350.416 636.812 349.288 637.928 348.279C640.816 346.242 643.521 343.962 646.043 341.439C652.281 336.629 658.753 332.111 665.453 327.874C665.961 327.663 666.46 327.675 666.955 327.909C667.007 327.364 667.251 326.929 667.693 326.6C671.161 324.635 674.713 322.712 678.347 320.835C678.721 320.601 679.104 320.582 679.497 320.773C680.06 319.854 680.871 319.196 681.93 318.796C683.286 318.208 684.653 317.828 686.023 317.653C686.29 316.928 686.802 316.442 687.56 316.185C693.301 313.817 699.127 311.638 705.039 309.649C712.007 307.535 719.13 306.15 726.398 305.501C728.493 304.902 730.444 303.99 732.252 302.763C733.637 301.489 735.051 300.237 736.493 299.016C740.441 293.6 744.107 288.057 747.487 282.384C753.703 270.513 759.579 258.522 765.116 246.411C768.6 240.826 771.97 235.203 775.231 229.538C775.582 229.634 775.934 229.731 776.285 229.828C778.012 226.36 780.352 223.348 783.302 220.795C783.676 220.562 784.059 220.542 784.452 220.733C784.765 219.814 785.342 219.092 786.182 218.563C788.186 217.169 790.346 216.188 792.66 215.619C794.079 215.954 795.509 216.032 796.942 215.85C798.405 216.742 799.858 217.645 801.3 218.559C801.528 218.543 801.736 218.473 801.924 218.352C802.163 219.214 802.713 219.743 803.567 219.938C803.47 220.289 803.374 220.64 803.277 220.992C804.351 221.403 805.157 222.128 805.702 223.17C807.849 231.027 808.545 239.029 807.8 247.177C807.987 247.308 808.131 247.472 808.23 247.673C807.923 250.276 807.715 252.864 807.609 255.439C807.126 257.264 806.879 259.085 806.864 260.903C804.316 270.41 801.885 279.947 799.572 289.511C797.847 296.792 796.472 304.098 795.44 311.429C794.934 311.774 794.557 312.237 794.303 312.818C794.004 315.487 793.78 318.135 793.633 320.759C792.426 321.398 792.257 322.233 793.133 323.267C790.459 332.479 791.373 341.298 795.881 349.72C796.419 351.671 797.023 353.598 797.692 355.509C798.745 357.291 799.616 359.167 800.303 361.139C804.341 375.094 805.195 389.183 802.862 403.413C800.067 417.055 795.898 430.4 790.355 443.438C788.23 447.186 786.281 451.06 784.517 455.062C783.825 456.41 783.028 457.703 782.129 458.941C782.145 459.168 782.213 459.376 782.335 459.564C781.217 461.268 780.015 462.891 778.73 464.432C778.901 464.732 779.069 465.028 779.24 465.328C776.368 468.616 774.043 472.264 772.268 476.262C769.416 480.195 766.611 484.213 763.856 488.312C763.299 489.006 762.954 489.795 762.829 490.675C762.478 490.579 762.126 490.482 761.775 490.386C759.191 494.494 756.504 498.541 753.714 502.532C753.011 502.823 752.442 503.298 752.002 503.952C750.149 506.761 748.199 509.498 746.154 512.171C741.557 518.021 736.884 523.793 732.138 529.485C728.993 532.419 726.266 535.702 723.954 539.33C720.642 542.293 717.883 545.693 715.673 549.526C715.322 549.43 714.97 549.333 714.619 549.237C710.84 554.533 706.688 559.563 702.158 564.332C701.395 565.226 700.754 566.183 700.235 567.205C699.884 567.108 699.532 567.012 699.181 566.915C699.084 567.682 698.775 568.353 698.25 568.927C696.269 570.775 694.571 572.829 693.157 575.086C692.806 574.99 692.454 574.893 692.103 574.797C690.527 577.206 688.765 579.492 686.817 581.659C682.339 586.483 677.724 591.137 672.967 595.617C672.671 596.023 672.482 596.477 672.406 596.974C672.054 596.877 671.703 596.781 671.351 596.684C671.427 598.746 672.183 600.59 673.61 602.218C673.822 602.726 673.81 603.225 673.576 603.72C674.755 604.739 675.667 605.999 676.318 607.497C676.77 608.381 676.897 609.296 676.696 610.246C677.379 610.358 677.843 610.735 678.084 611.383C678.581 613.991 679.559 616.403 681.011 618.612C681.771 621.062 682.422 623.508 682.964 625.951C683.315 626.047 683.666 626.144 684.018 626.24C684.411 628.51 684.919 630.789 685.539 633.083C686.99 637.831 688.532 642.537 690.164 647.203C691.244 651.744 692.318 656.324 693.383 660.936C693.567 661.573 693.526 662.189 693.252 662.79C693.603 662.886 693.954 662.983 694.306 663.079C695.042 666.811 695.514 670.596 695.723 674.428C696.075 674.525 696.426 674.621 696.777 674.718C696.938 676.927 697.209 679.145 697.596 681.368C700.211 693.284 702.321 705.329 703.922 717.496C704.08 718.257 704.002 718.992 703.694 719.701C704.046 719.798 704.397 719.894 704.748 719.991C704.698 721.851 704.687 723.738 704.706 725.648C705.819 732.382 706.666 739.164 707.242 745.996C707.904 758.513 708.264 770.959 708.324 783.33C707.917 789.363 707.454 795.411 706.932 801.465C707.123 801.718 707.235 801.998 707.266 802.313C706.89 806.144 706.476 809.934 706.03 813.689C706.034 814.858 706.156 816.025 706.392 817.19C705.992 817.393 705.66 817.68 705.399 818.051C705.53 819.432 705.528 820.815 705.392 822.206C702.715 849.448 699.316 876.734 695.189 904.057C695.317 904.281 695.444 904.505 695.571 904.729C694.851 905.219 694.41 905.918 694.241 906.82C693.541 911.197 692.791 915.526 691.996 919.809C691.332 922.46 690.664 925.111 690 927.763C689.217 930.572 688.226 933.259 687.028 935.828C687.747 936.46 687.674 936.947 686.818 937.282C685.507 941.476 683.997 945.596 682.289 949.643C680.654 952.153 679.239 954.788 678.039 957.546C676.549 959.737 675.23 962.02 674.079 964.394C673.598 964.852 673.059 965.206 672.463 965.462C667.201 973.007 660.693 979.281 652.932 984.284C652.295 984.744 651.579 985.053 650.789 985.207C650.347 985.535 650.103 985.971 650.051 986.516C649.229 986.468 648.43 986.626 647.653 986.991C644.169 988.792 640.582 990.388 636.889 991.781C635.082 992.418 633.232 992.727 631.342 992.714C631.246 993.065 631.149 993.417 631.053 993.768C626.271 994.238 621.469 994.745 616.651 995.292C610.128 994.921 603.649 994.211 597.206 993.163C596.714 992.064 595.952 991.854 594.922 992.535C594.385 991.424 593.622 991.214 592.638 991.908C592.428 990.841 591.957 990.712 591.232 991.521C590.91 990.466 590.383 990.321 589.651 991.087C587.996 990.111 586.307 989.144 584.59 988.185C584.29 988.356 583.995 988.524 583.694 988.695C582.967 987.959 582.125 987.349 581.173 986.869C578.966 985.986 576.838 985.024 574.786 983.98C574.882 983.629 574.979 983.277 575.075 982.926C573.344 982.254 571.684 981.42 570.094 980.424C567.663 978.46 565.141 976.633 562.529 974.944C562.626 974.593 562.722 974.242 562.819 973.89C561.19 972.94 559.562 971.987 557.934 971.037C558.125 970.643 558.106 970.26 557.872 969.886C557.024 969.245 556.186 968.637 555.35 968.059C555.447 967.708 555.543 967.357 555.64 967.005C553.659 965.301 551.757 963.516 549.929 961.657C550.025 961.306 550.122 960.954 550.218 960.603C547.13 956.837 544.244 952.896 541.562 948.777C541.485 948.397 541.522 948.029 541.676 947.675C541.24 947.638 540.921 947.426 540.719 947.034C537.941 941.694 535.266 936.299 532.694 930.846C532.51 930.21 532.55 929.594 532.825 928.993C532.101 928.726 531.614 928.214 531.358 927.456C531.052 925.996 530.555 924.601 529.863 923.266C529.651 922.758 529.664 922.259 529.898 921.764C529.462 921.727 529.143 921.515 528.94 921.123C527.019 914.771 525.104 908.452 523.19 902.159C522.74 898.335 521.796 894.675 520.35 891.175C520.423 890.152 520.389 889.134 520.243 888.122C518.292 879.117 516.882 870.038 516.011 860.883C515.886 860.002 515.992 859.147 516.335 858.327C515.752 858.219 515.406 857.871 515.298 857.286C510.346 863.397 504.684 868.644 498.313 873.028C497.83 873.481 497.55 874.031 497.479 874.688C495.068 875.171 493.095 876.394 491.56 878.353C490.173 878.845 488.862 879.491 487.625 880.296C487.117 880.508 486.618 880.495 486.123 880.261C485.961 880.848 485.801 881.431 485.64 882.018C485.039 881.743 484.423 881.702 483.786 881.887C480.243 883.918 476.52 885.541 472.623 886.756C472.115 886.968 471.616 886.956 471.121 886.722C471.024 887.073 470.928 887.424 470.831 887.776C467.814 887.779 464.884 888.361 462.038 889.517C461.277 889.675 460.542 889.598 459.833 889.29C459.737 889.641 459.64 889.993 459.544 890.344C453.892 890.515 448.271 890.796 442.682 891.192C437.112 890.463 431.58 889.51 426.083 888.333C424.036 887.751 422.107 886.972 420.303 885.989C419.578 886.799 419.107 886.669 418.897 885.603C418.749 885.687 418.597 885.774 418.449 885.858C417.502 890.82 416.617 895.868 415.8 901.003C415.345 901.478 414.949 901.997 414.615 902.567C413.639 907.839 412.707 913.063 411.821 918.239C411.185 918.835 410.725 919.589 410.443 920.506C410.251 921.851 410.129 923.204 410.084 924.564C409.751 925.334 409.306 926.032 408.754 926.655C407.517 932.959 406.044 939.229 404.34 945.472C399.492 963.891 393.21 981.945 385.495 999.629C382.267 1005.33 379.069 1011 375.907 1016.65C375.719 1016.77 375.511 1016.84 375.284 1016.85C372.646 1020.84 369.933 1024.76 367.144 1028.6C366.792 1028.5 366.441 1028.41 366.089 1028.31C366.019 1028.97 365.739 1029.52 365.255 1029.97C361.987 1033.62 358.432 1036.93 354.594 1039.89C354.105 1040.27 353.57 1040.37 352.995 1040.21C352.682 1041.13 352.106 1041.85 351.265 1042.38C350.091 1042.9 349.07 1043.63 348.209 1044.56C347.641 1044.92 347.017 1045.13 346.338 1045.18C345.896 1045.51 345.652 1045.95 345.6 1046.49C344.152 1046.18 343.124 1046.71 342.513 1048.1C339.965 1049.2 337.338 1050.06 334.63 1050.66C334.479 1051.24 334.114 1051.64 333.541 1051.87C331.242 1052.44 329.016 1053.21 326.857 1054.19C323.356 1054.72 319.839 1055.14 316.307 1055.45C316.21 1055.8 316.114 1056.15 316.017 1056.51C312.488 1056.33 309.003 1056.63 305.564 1057.41C305.393 1057.11 305.225 1056.82 305.054 1056.52C303.544 1057.05 302.009 1057.13 300.451 1056.76C299.844 1058.03 299.433 1057.91 299.221 1056.43C298.961 1056.71 298.805 1057.05 298.756 1057.43C291.825 1056.47 284.891 1055.57 277.954 1054.74C276.394 1053.38 274.577 1052.88 272.507 1053.25C271.927 1052.99 271.464 1052.61 271.119 1052.11C270.075 1052.8 269.312 1052.59 268.835 1051.48C267.857 1052.19 267.095 1051.98 266.551 1050.85C265.734 1051.6 265.207 1051.45 264.969 1050.42C264.743 1050.71 264.447 1050.88 264.074 1050.93C254.304 1047.34 244.547 1043.65 234.801 1039.86C234.897 1039.51 234.994 1039.16 235.09 1038.81C231.096 1037.24 227.16 1035.53 223.274 1033.67C221.85 1032.6 220.43 1031.58 219.013 1030.61C218.713 1030.78 218.417 1030.95 218.117 1031.12C217.102 1029.78 215.765 1028.91 214.11 1028.51C214.207 1028.16 214.304 1027.81 214.4 1027.46C210.035 1025.23 205.789 1022.8 201.661 1020.18C201.757 1019.83 201.854 1019.48 201.95 1019.12C199.558 1017.88 197.324 1016.39 195.247 1014.64C192.438 1012.03 189.642 1009.37 186.855 1006.66C185.961 1005.9 185.004 1005.26 183.982 1004.74C184.148 1004.17 184.041 1003.63 183.666 1003.14C180.477 1000.43 177.81 997.3 175.66 993.762C174.992 993.087 174.269 992.511 173.49 992.032C173.655 991.458 173.549 990.922 173.173 990.433C168.117 983.98 164.275 976.878 161.642 969.126C161.414 968.553 161.008 968.188 160.43 968.037C160.609 967.262 160.57 966.495 160.306 965.735C159.655 963.856 158.903 962.013 158.047 960.202C157.131 956.424 156.543 952.608 156.278 948.756C155.927 948.659 155.576 948.563 155.224 948.466C154.547 942.056 154.108 935.636 153.901 929.207C150.958 930.262 147.937 930.943 144.836 931.252C144.263 931.48 143.899 931.886 143.747 932.464C141.7 932.31 139.717 932.65 137.801 933.476C136.401 933.508 135.015 933.505 133.645 933.469C133.549 933.82 133.452 934.171 133.356 934.523C129.7 934.486 126.012 934.607 122.296 934.886C121.292 934.98 120.325 934.84 119.389 934.465C119.292 934.817 119.196 935.168 119.099 935.519C109.135 935.004 99.2694 933.553 89.4944 931.166C87.0235 930.434 84.6274 929.527 82.308 928.436C81.6795 928.358 81.0887 928.445 80.5337 928.705C76.4801 926.676 72.3523 924.726 68.1592 922.849C67.2698 922.276 66.448 921.608 65.6858 920.847C64.7463 920.759 63.8081 920.501 62.8746 920.074C62.9712 919.723 63.0677 919.372 63.1642 919.02C61.8226 918.773 60.5683 918.303 59.3953 917.607C59.1189 917.21 58.9203 916.777 58.8064 916.311C58.5796 916.601 58.284 916.769 57.9105 916.821C55.5043 914.973 53.0106 913.279 50.4248 911.741C50.5214 911.39 50.6179 911.039 50.7144 910.687C47.5097 908.541 44.3171 906.405 41.1376 904.277C41.2342 903.926 41.3307 903.574 41.4272 903.223C38.5348 900.917 35.6388 898.61 32.7463 896.303C32.8429 895.952 32.9394 895.6 33.0359 895.249C30.8459 894.183 29.1431 892.581 27.9309 890.445C27.4779 889.962 26.9274 889.682 26.2704 889.611C26.3669 889.26 26.4635 888.909 26.56 888.557C24.5671 886.842 22.6617 885.056 20.8486 883.209C21.014 882.635 20.9079 882.099 20.532 881.61C19.0067 880.05 17.5557 878.453 16.178 876.824C14.9593 874.203 13.3171 871.926 11.2524 869.991C11.4436 869.598 11.4242 869.214 11.1906 868.84C9.06929 865.378 7.1498 861.827 5.42511 858.187C5.35088 857.535 5.27921 856.888 5.20497 856.236C3.77477 854.275 3.11911 852.081 3.23544 849.649C2.88404 849.552 2.53263 849.456 2.18123 849.359C1.48526 845.275 0.781646 841.178 0.0783759 837.066C-0.0710895 831.791 -0.00578694 826.518 0.267274 821.245C1.17541 816.839 2.05406 812.484 2.91216 808.178C3.629 805.774 4.52473 803.435 5.59387 801.167C5.72924 800.55 5.77352 799.935 5.72512 799.313C6.60895 797.183 7.39666 795.003 8.08633 792.781C19.3555 767.51 30.7844 742.181 42.3772 716.791C43.5391 714.144 44.8664 711.61 46.3545 709.192C46.3032 708.924 46.2474 708.66 46.1961 708.392C50.7704 699.747 54.9496 690.945 58.7418 681.983C59.0932 682.08 59.4446 682.176 59.796 682.273C60.1665 680.47 60.7687 678.745 61.5954 677.098C74.0327 652.046 87.2185 627.199 101.157 602.556C107.189 592.017 113.5 581.658 120.088 571.476C120.439 571.572 120.791 571.669 121.142 571.765C121.326 570.656 121.735 569.634 122.362 568.699C133.852 550.647 146.568 533.479 160.508 517.199C167.293 510.216 174.314 503.452 181.576 496.91C185.511 493.838 189.584 490.924 193.801 488.175C194.254 487.668 194.71 487.166 195.162 486.659C197.263 485.464 199.438 484.425 201.688 483.539C203.4 482.369 205.106 481.197 206.809 480.033C207.317 479.821 207.816 479.833 208.311 480.067C208.407 479.716 208.504 479.365 208.6 479.013C208.955 479.167 209.323 479.204 209.703 479.127C211.509 477.945 213.453 477.281 215.54 477.14C215.95 476.512 216.379 475.874 216.822 475.225C217.619 462.969 219.024 450.755 221.028 438.588C221.282 436.852 221.309 435.158 221.101 433.507C221.466 433.459 221.761 433.291 221.997 432.997C222.098 430.496 222.407 427.996 222.922 425.503C222.731 425.251 222.618 424.97 222.588 424.656C224.359 413.71 226.468 402.827 228.912 392.002C229.072 390.652 229.19 389.301 229.271 387.944C229.053 388.232 228.797 388.475 228.503 388.678C217.787 389.468 207.046 390.047 196.282 390.408C190.819 389.92 185.326 389.734 179.807 389.851C179.603 389.451 179.316 389.119 178.946 388.858C176.732 388.813 174.527 388.585 172.331 388.175C172.078 388.366 171.798 388.478 171.483 388.509C166.928 387.401 162.335 386.453 157.713 385.671C153.66 384.013 149.583 382.58 145.48 381.366C139.498 378.362 133.591 375.103 127.759 371.585C124.399 368.738 121.031 365.863 117.659 362.952C115.857 360.515 113.815 358.318 111.534 356.357C108.675 352.25 105.914 348.09 103.247 343.877C100.678 337.71 97.5722 331.819 93.9306 326.201C93.8829 325.7 93.9525 325.213 94.141 324.747C93.7051 324.71 93.3856 324.498 93.1833 324.106C91.7703 321.476 90.3571 318.821 88.947 316.139C87.5972 316.706 86.4853 317.534 85.6184 318.626C85.264 318.472 84.8961 318.435 84.516 318.512C83.6878 319.528 82.6263 320.181 81.3322 320.472C79.7276 322.375 77.7223 323.713 75.316 324.488C73.9839 325.74 72.5436 326.856 70.995 327.836C70.1103 328.289 69.194 328.415 68.2455 328.215C67.7343 329.152 66.939 329.753 65.8611 330.016C63.7753 330.377 61.6924 330.621 59.6112 330.756C59.5146 331.107 59.4181 331.459 59.3216 331.81C55.9778 331.916 52.6221 331.75 49.2545 331.312C48.6307 330.226 47.8105 330.001 46.7947 330.636C44.958 329.478 43.1432 328.288 41.3518 327.063C40.7067 326.697 40.0194 326.447 39.2916 326.308C39.3881 325.956 39.4847 325.605 39.5812 325.254C39.0367 325.202 38.6002 324.958 38.2721 324.516C37.1156 322.834 35.9459 321.13 34.7657 319.396C33.8747 316.528 33.0278 313.65 32.2247 310.761C31.8424 304.995 31.7828 299.25 32.0486 293.518C32.4124 293.47 32.7105 293.303 32.9445 293.008C32.7623 292.516 32.5825 292.024 32.4038 291.537C33.4191 285.901 34.7396 280.406 36.3655 275.052C38.9494 269.205 41.8367 263.509 45.0265 257.968C46.387 256.452 47.7482 254.936 49.11 253.421C50.5834 252.148 52.1571 251.004 53.8307 249.994C56.6378 248.887 59.5156 248.041 62.4651 247.453C64.7289 247.613 66.9657 247.725 69.1765 247.785C71.8517 248.894 74.5983 249.901 77.4171 250.804C81.8547 253.762 85.9447 257.217 89.6873 261.166C89.9195 261.54 89.94 261.924 89.7492 262.317C90.2176 262.446 90.6863 262.575 91.1548 262.703C91.3654 263.77 91.5774 264.834 91.7881 265.901C92.1723 265.949 92.5073 266.106 92.7941 266.366C93.0782 267.275 93.3959 268.183 93.7479 269.084C93.9343 268.829 94.1738 268.646 94.4681 268.526C97.6425 263.371 100.827 258.199 104.021 253.011C104.373 253.107 104.724 253.204 105.075 253.3C105.978 251.364 107.051 249.519 108.298 247.761C116.979 235.985 127.348 225.984 139.404 217.758C143.278 215.307 147.206 212.921 151.195 210.604C153.65 210.088 155.725 208.957 157.418 207.211C159.448 207.029 161.379 206.425 163.206 205.4C163.714 205.188 164.213 205.201 164.708 205.435C164.745 204.999 164.957 204.68 165.349 204.477C166.065 204.39 166.748 204.2 167.396 203.906C173.399 202.275 179.459 200.852 185.574 199.64C188.36 199.185 191.15 198.878 193.95 198.729C194.993 198.494 196.016 198.208 197.02 197.872C203.48 197.605 209.901 197.162 216.279 196.549C216.899 195.188 217.401 193.814 217.789 192.428C217.888 191.987 217.808 191.587 217.551 191.229C218.01 189.201 218.381 187.164 218.665 185.111C218.83 184.759 219.042 184.439 219.306 184.153C219.651 179.886 220.058 175.652 220.528 171.45C221.125 170.972 221.553 170.334 221.81 169.535C223.15 162.995 224.436 156.481 225.666 149.997C226.545 148.542 227.231 146.969 227.72 145.271C228.167 143.561 228.381 141.859 228.368 140.158C232.781 126.711 237.467 113.323 242.426 99.9919C242.451 99.7078 242.396 99.4396 242.267 99.1926C243.639 95.9753 245.123 92.8569 246.727 89.836C246.492 89.5105 246.34 89.1551 246.266 88.7644C247.938 86.2534 249.413 83.6352 250.691 80.9099C253.407 75.2315 256.158 69.5641 258.952 63.9054C262.065 58.8626 265.102 53.7765 268.058 48.6444C268.586 47.9718 269.19 47.382 269.867 46.8739C272.203 43.3082 274.554 39.7971 276.918 36.3394C277.269 36.436 277.62 36.5325 277.972 36.629C279.021 34.2687 280.423 32.1348 282.187 30.2284C285.552 26.8922 288.814 23.5054 291.97 20.0666C292.321 20.1631 292.672 20.2596 293.024 20.3562C294.343 18.5398 295.912 16.955 297.731 15.6025C298.239 15.3909 298.738 15.4023 299.233 15.6372C299.284 15.0927 299.529 14.6562 299.971 14.3281C304.948 10.4082 310.355 7.23274 316.193 4.80137C316.585 4.59737 316.798 4.27782 316.834 3.84369C318.556 3.66726 320.203 3.17488 321.775 2.36654C322.787 2.03632 323.806 2.00099 324.827 2.26029C324.863 1.82616 325.076 1.50661 325.468 1.30261C338.998 -2.12308 352.557 -2.17742 366.14 1.13767C369.832 2.54259 373.557 3.88075 377.319 5.15345C382.217 8.05666 387.086 10.9689 391.926 13.8899C391.829 14.2413 391.733 14.5927 391.636 14.9441C394.975 16.8478 397.987 19.1869 400.668 21.9604C400.901 22.3362 400.921 22.7194 400.73 23.1111C401.387 23.1837 401.938 23.461 402.391 23.9452C410.369 33.1046 416.915 43.2169 422.023 54.2811C422.235 54.7887 422.223 55.2889 421.989 55.7832C422.713 56.0498 423.2 56.5614 423.456 57.3201C424.129 59.5354 424.788 61.7319 425.426 63.9078C425.777 64.0044 426.128 64.1009 426.48 64.1974C426.811 65.6041 427.044 67.0539 427.175 68.5455C429.112 73.0084 430.094 77.6874 430.122 82.5822C430.557 82.6191 430.877 82.8327 431.079 83.2232C432.024 87.1734 432.432 91.1909 432.304 95.275C432.655 95.3716 433.006 95.4681 433.358 95.5646C433.172 97.5745 433.184 99.5937 433.395 101.621C434.007 100.934 434.524 100.194 434.949 99.403C435.3 99.4995 435.652 99.5961 436.003 99.6926C437.491 97.1104 439.229 94.6907 441.21 92.4308C446.456 86.9139 451.68 81.4202 456.886 75.9514C457.237 76.0479 457.589 76.1444 457.94 76.241C458.982 74.511 460.284 72.9789 461.848 71.6456C464.682 69.3093 467.538 66.9448 470.411 64.5499C470.671 64.2631 470.827 63.9281 470.876 63.5439C471.45 63.7093 471.986 63.6042 472.475 63.2273C475.164 60.3988 478.252 58.098 481.74 56.3245C482 56.0377 482.157 55.7028 482.206 55.3186C482.557 55.4151 482.908 55.5117 483.26 55.6082C483.311 55.0637 483.556 54.6272 483.997 54.2991C487.986 52.0356 492.002 49.8001 496.043 47.5933C497.639 46.8347 499.23 46.0754 500.826 45.3168C501.334 45.1052 501.833 45.1166 502.328 45.3515C502.364 44.9174 502.577 44.5979 502.969 44.3939C504.848 43.6206 506.779 43.0172 508.757 42.5827C509.331 42.3532 509.695 41.9494 509.846 41.3701C512.643 40.9828 515.425 40.4873 518.191 39.8833C518.288 39.5319 518.384 39.1805 518.481 38.8291C524.07 38.2533 529.584 37.438 535.025 36.3824C539.037 36.4716 543.073 36.4464 547.139 36.3088C550.413 36.8258 553.689 37.2849 556.965 37.6853C558.13 38.6426 559.333 38.847 560.575 38.2992Z" fill="#D4D4D4" fill-opacity="0.16"/>
</svg>
