<svg width="126" height="114" viewBox="0 0 126 114" fill="none" xmlns="http://www.w3.org/2000/svg">
<path fill-rule="evenodd" clip-rule="evenodd" d="M0.0921493 0.13737C-0.0765922 0.304562 0.00722394 79.7888 0.176151 79.8923C0.36839 80.0101 40.1712 80.0415 40.2898 79.9239C40.5022 79.713 40.3601 54.084 40.1451 53.8269C39.9516 53.5956 38.5375 53.5591 30.2162 53.5712C23.0432 53.5815 20.4449 53.529 20.2514 53.3697C19.8497 53.039 19.8606 27.1063 20.2627 26.7754C20.479 26.5972 20.9684 26.6144 22.6217 26.8585C24.5858 27.1483 26.7768 27.4531 29.9811 27.8822C34.5504 28.4941 35.7642 28.6508 37.012 28.7903C39.9644 29.1205 41.7201 29.3576 42.4502 29.5248C42.8683 29.6206 43.6266 29.703 44.1354 29.7079C44.6442 29.7129 45.4148 29.798 45.8479 29.8972C46.7298 30.0988 49.5934 30.4938 53.2015 30.9111C54.5244 31.0642 56.0648 31.2646 56.6245 31.3565C60.2308 31.9484 61.055 31.9715 63.7479 31.5564C65.1726 31.3365 67.361 31.0429 68.611 30.9036C69.8611 30.7641 71.5263 30.5606 72.3115 30.4509C73.0967 30.3413 74.4052 30.1647 75.2193 30.0585C76.0334 29.9522 77.1158 29.7913 77.6246 29.7004C78.1335 29.6098 79.091 29.4894 79.7524 29.433C80.9138 29.3341 83.7369 28.9698 86.2282 28.5974C86.8897 28.4985 88.4717 28.2963 89.7437 28.1478C92.6739 27.8077 95.5953 27.3966 98.5053 26.9149C100.21 26.6335 100.97 26.5763 101.188 26.7128C101.465 26.8862 101.497 28.0628 101.544 39.8219C101.572 46.927 101.549 52.9261 101.494 53.1533L101.393 53.5663H91.5349C84.1142 53.5663 81.6217 53.6208 81.4546 53.7865C81.2001 54.039 81.1281 79.3632 81.381 79.7578C81.5916 80.0866 121.373 80.1232 121.578 79.7948C121.861 79.3391 121.78 0.411007 121.495 0.176828C121.061 -0.181047 101.31 0.0564352 100.741 0.426423C100.5 0.58297 100.195 0.710887 100.064 0.710887C99.9322 0.710887 99.4336 0.917354 98.9557 1.1697C98.4778 1.42205 97.9349 1.62852 97.7493 1.62852C97.5637 1.62852 97.2477 1.74193 97.0471 1.88031C96.8464 2.01887 96.392 2.19488 96.0373 2.27141C95.6826 2.34812 95.2139 2.52669 94.996 2.66837C94.778 2.81005 94.3606 2.9989 94.0683 3.08828C93.7759 3.17747 92.8321 3.54617 91.971 3.90772C91.1097 4.26927 90.335 4.56493 90.2494 4.56493C90.1635 4.56493 89.7441 4.72 89.3172 4.9094C87.3621 5.77693 86.7798 6.0045 86.2012 6.12728C85.8599 6.19977 85.4872 6.33338 85.3731 6.42441C85.132 6.61638 81.2232 8.23544 81.0008 8.23544C80.9184 8.23544 79.9587 8.59955 78.8678 9.04442C76.6844 9.93525 75.0924 10.569 71.6114 11.9329C70.3393 12.4314 68.9959 13.0009 68.6258 13.1985C68.2558 13.396 67.8395 13.5604 67.7007 13.5639C67.562 13.5674 67.1153 13.7296 66.7083 13.9247C66.3012 14.1198 65.8633 14.2821 65.7348 14.2855C65.5152 14.2914 65.1348 14.4494 62.788 15.5098C61.0861 16.2788 60.1051 16.1248 56.717 14.5581C56.2082 14.3226 55.2923 13.968 54.6817 13.77C53.6756 13.4435 52.8237 13.102 51.1383 12.3497C50.8177 12.2066 50.4388 12.0895 50.2965 12.0895C50.154 12.0895 49.9584 12.0177 49.8619 11.93C49.7651 11.8425 49.2698 11.6217 48.761 11.4396C48.2521 11.2576 47.7526 11.0549 47.6508 10.9892C47.5491 10.9235 46.7164 10.5983 45.8006 10.2665C43.7217 9.51333 43.6195 9.4735 42.3776 8.92843C41.8179 8.68287 40.8605 8.29857 40.2499 8.07449C39.6393 7.8504 38.8067 7.50923 38.3996 7.31652C37.9926 7.12382 37.4303 6.9124 37.1504 6.8467C36.8702 6.781 36.3322 6.57104 35.9547 6.38018C35.5773 6.18931 35.1532 6.03313 35.0124 6.03313C34.8716 6.03313 34.5352 5.91402 34.2651 5.7683C33.6849 5.45539 32.0628 4.78277 30.2586 4.10685C29.5463 3.84 28.7011 3.5036 28.3804 3.35916C28.0598 3.21491 27.6851 3.09635 27.5478 3.09599C27.4105 3.09562 27.0257 2.93045 26.6924 2.72894C26.3592 2.52742 25.9845 2.35987 25.8598 2.35638C25.7351 2.35289 25.3 2.19065 24.8929 1.99557C24.4859 1.80048 24.0449 1.63824 23.913 1.63476C23.7813 1.63127 23.2823 1.42205 22.8044 1.1697C22.3264 0.917354 21.8435 0.710887 21.7312 0.710887C21.6187 0.710887 21.2811 0.589393 20.9808 0.440738C20.4557 0.180865 0.342671 -0.111307 0.0921493 0.13737ZM94.4797 87.5264C93.8792 87.6196 93.2482 87.8211 93.0776 87.9742C92.907 88.1273 92.6908 88.2526 92.597 88.2526C92.2419 88.2526 91.4217 89.5281 91.1084 90.5671C90.6105 92.2188 90.6159 109.089 91.1147 110.707C91.4491 111.791 92.5971 113.212 93.1381 113.212C93.2752 113.212 93.6706 113.356 94.017 113.531C95.0866 114.073 102.235 113.996 103.62 113.427C104.61 113.021 105.547 112.207 105.734 111.589C106.457 109.206 106.759 93.9927 106.135 91.4333C105.991 90.8447 105.826 90.1473 105.767 89.8834C105.601 89.1313 104.349 87.977 103.418 87.7178C102.398 87.4334 95.9664 87.2957 94.4797 87.5264ZM0.0936301 87.7444C0.0444138 87.8725 0.0255404 93.7584 0.0518138 100.824L0.0997354 113.671L2.21197 113.723C3.46402 113.754 4.40043 113.7 4.51144 113.589C4.71737 113.385 4.70997 111.927 4.44613 100.679C4.35195 96.663 4.3242 93.1326 4.38451 92.8336C4.68925 91.3224 5.67949 93.2689 5.94778 95.9056C6.04825 96.8948 6.29322 98.3763 6.49193 99.1975C6.69046 100.019 6.8531 100.91 6.8531 101.177C6.8531 101.444 7.01203 102.342 7.20631 103.171C7.40077 104 7.6463 105.298 7.75231 106.055C8.14216 108.842 8.3579 110.204 8.53737 111.01C8.63839 111.464 8.79899 112.192 8.89391 112.628C8.98901 113.064 9.11483 113.497 9.17348 113.591C9.23232 113.686 10.602 113.763 12.2249 113.763H15.1697L15.4573 113.211C15.6155 112.908 15.8295 111.978 15.9331 111.146C16.0366 110.314 16.2057 109.317 16.3087 108.931C16.412 108.545 16.6166 107.321 16.7635 106.211C16.9106 105.101 17.1121 104.042 17.2113 103.858C17.3105 103.674 17.4451 103.04 17.5106 102.449C17.576 101.858 17.7854 100.714 17.9758 99.9065C18.1662 99.099 18.3272 98.1079 18.3334 97.7042C18.359 96.0675 19.3254 92.1984 19.7085 92.1984C20.3252 92.1984 20.3931 93.3154 20.1879 100.09C19.8828 110.159 19.8841 113.4 20.1929 113.594C20.5214 113.8 24.2553 113.809 24.5808 113.604C24.9702 113.359 24.9321 87.8815 24.5421 87.665C24.3895 87.5804 22.5381 87.5334 20.4277 87.5607L16.5907 87.6103L16.3537 88.5279C16.2233 89.0326 16.0308 90.2031 15.9261 91.1292C15.8214 92.0553 15.6462 93.0463 15.5368 93.3315C15.4273 93.6167 15.2643 94.4894 15.1744 95.2705C15.0844 96.0515 14.8846 97.0839 14.7301 97.5645C14.4766 98.3541 14.2428 99.7672 13.439 105.371C13.1726 107.228 12.96 107.706 12.401 107.706C11.9605 107.706 11.8317 107.355 11.5603 105.412C11.4334 104.504 11.1984 103.1 11.038 102.292C10.6896 100.537 10.0597 96.6359 9.89711 95.2266C9.83309 94.6714 9.66324 93.8634 9.51948 93.4308C9.3759 92.9982 9.25841 92.2957 9.25841 91.8695C9.25841 91.4436 9.16719 90.8064 9.05581 90.4536C8.94424 90.1011 8.75644 89.3171 8.63821 88.7114L8.42321 87.6103L4.30329 87.5609C1.10774 87.5226 0.163199 87.5637 0.0936301 87.7444ZM29.3272 87.7452C29.278 87.8729 29.2593 93.7584 29.2856 100.824L29.3335 113.671L34.8618 113.72C38.7867 113.754 40.4638 113.708 40.6438 113.56C40.92 113.332 41.0118 110.187 40.7539 109.785C40.6615 109.641 39.7105 109.55 37.8818 109.51C35.7 109.462 35.1121 109.394 34.9724 109.175C34.6951 108.738 34.7412 102.255 35.023 102.074C35.1502 101.992 36.3366 101.884 37.6595 101.834L40.0648 101.742L40.1185 100.014C40.1842 97.8971 40.3 97.9859 37.4653 97.9822C35.9814 97.9804 35.1615 97.9059 35.0137 97.7592C34.6849 97.4331 34.7043 92.04 35.0352 91.7677C35.1769 91.651 36.3179 91.5456 37.7643 91.5157L40.2499 91.4643V87.6103L34.8331 87.5616C30.5996 87.5237 29.3969 87.5637 29.3272 87.7452ZM44.4592 87.64C44.1568 87.7609 44.1182 112.849 44.4194 113.408C44.7162 113.958 49.4796 113.95 49.7769 113.399C49.9096 113.153 49.9682 109.594 49.9575 102.451C49.9447 93.9148 49.9886 91.8371 50.184 91.7141C50.3172 91.6302 51.5226 91.5605 52.8626 91.5588C56.0964 91.5552 55.8844 91.6968 55.8844 89.5391C55.8844 87.8336 55.8638 87.7393 55.4681 87.6341C54.97 87.5018 44.7911 87.5071 44.4592 87.64ZM59.6925 87.7446C59.3062 89.0607 58.9978 90.6498 58.8636 92.0149C58.6655 94.0296 58.2009 97.3463 57.8221 99.4477C57.6674 100.306 57.4615 101.627 57.3646 102.384C57.2676 103.141 57.107 104.05 57.0076 104.403C56.9085 104.756 56.6953 106.119 56.534 107.431C56.3728 108.743 56.1321 110.506 55.9991 111.348C55.5985 113.885 55.4718 113.763 58.5008 113.763H61.0743L61.2547 113.292C61.3539 113.033 61.4395 112.269 61.4449 111.594C61.4584 109.899 61.8736 107.525 62.1913 107.326C62.6786 107.02 66.3759 107.117 66.5007 107.439C66.6862 107.918 67.1708 111.395 67.1708 112.247C67.1708 113.746 67.2034 113.763 70.1312 113.763C73.1667 113.763 73.2507 113.711 72.928 112.056C72.8257 111.531 72.6891 110.647 72.6246 110.092C72.5598 109.537 72.4212 108.752 72.3167 108.349C72.0776 107.427 71.6957 105.07 71.2386 101.693C71.0435 100.253 70.8045 98.7668 70.7074 98.3897C70.61 98.0127 70.4724 97.0086 70.4013 96.1584C70.3303 95.3083 70.1969 94.3585 70.1051 94.0478C70.0133 93.7373 69.8128 92.6159 69.6596 91.5561C69.5062 90.4962 69.2771 89.1748 69.1504 88.6197L68.92 87.6103L64.3403 87.5611C60.7681 87.5229 59.7456 87.5633 59.6925 87.7446ZM74.7105 87.7167C74.4387 87.8738 74.3867 88.179 74.3867 89.6186C74.3867 91.6405 74.2898 91.5561 76.6113 91.5561C77.7194 91.5561 78.2989 91.6304 78.4001 91.7855C78.4824 91.9118 78.5914 96.8875 78.6423 102.843L78.7348 113.671L81.2815 113.722L83.8281 113.773L84.0237 113.263C84.1551 112.921 84.2021 109.368 84.1669 102.45C84.1243 94.0707 84.1606 92.091 84.3615 91.8512C84.5593 91.6148 84.9903 91.5561 86.5284 91.5561C87.5845 91.5561 88.4515 91.4942 88.4554 91.4184C88.473 91.0606 88.4824 87.9502 88.4665 87.7479C88.4434 87.4526 75.2193 87.4227 74.7105 87.7167ZM110.375 87.7261C110.322 87.8643 110.3 93.7584 110.326 100.824L110.374 113.671L112.989 113.722C115.35 113.768 115.616 113.741 115.735 113.446C115.807 113.267 115.854 111.579 115.84 109.696C115.807 105.442 115.615 105.688 118.979 105.688C120.939 105.688 121.418 105.63 122.03 105.321C122.43 105.119 122.873 104.953 123.017 104.953C123.34 104.953 124.898 103.364 124.898 103.034C124.898 102.902 125.023 102.557 125.175 102.267C125.4 101.838 125.451 100.805 125.452 96.6214L125.453 91.5008L124.963 90.5059C124.368 89.3015 123.481 88.5308 122.123 88.0394C120.791 87.5574 110.545 87.2843 110.375 87.7261ZM63.9686 91.3971C63.8034 91.6546 63.6382 92.5409 63.5625 93.5749C63.4924 94.5338 63.3227 95.9132 63.1856 96.6403C63.0487 97.3672 62.8784 99.0718 62.8074 100.428C62.6588 103.271 62.6753 103.302 64.3627 103.302C65.9473 103.302 66.1676 102.972 65.9106 100.99C65.7941 100.091 65.6501 98.6539 65.5909 97.796C65.5317 96.938 65.4098 95.9469 65.3198 95.5937C65.2301 95.2404 65.0712 94.1722 64.9666 93.2199C64.7507 91.2523 64.4332 90.6726 63.9686 91.3971ZM97.8577 91.3193C96.6516 91.5016 96.6821 91.261 96.6821 100.584V109.023L97.2013 109.466C98.247 110.358 100.127 109.878 100.477 108.629C100.674 107.924 100.736 93.4475 100.546 92.5036C100.368 91.6242 99.2119 91.1145 97.8577 91.3193ZM116.156 91.8073C115.729 92.1346 115.654 101.091 116.076 101.438C116.464 101.758 118.304 101.909 118.773 101.66C119.779 101.126 119.901 100.578 119.902 96.5843C119.903 91.887 119.811 91.6739 117.768 91.6034C116.908 91.5739 116.372 91.6416 116.156 91.8073Z" fill="white"/>
</svg>
