<svg width="137" height="143" viewBox="0 0 137 143" fill="none" xmlns="http://www.w3.org/2000/svg">
<path d="M62.1643 142.115C62.1159 141.765 62.1401 140.278 62.2127 138.808C62.3176 136.791 61.9546 136.039 60.7288 135.697C59.3497 135.313 59.0675 135.715 58.8578 138.364C58.6642 140.816 58.2771 141.474 57.0029 141.474C55.769 141.474 55.4383 140.979 55.6077 139.381L55.8335 137.296L53.9221 139.193C51.3898 141.714 49.1155 140.936 50.1962 137.928C50.6156 136.766 50.9543 134.869 50.9543 133.723C50.9543 132.219 51.3979 131.647 52.5672 131.647C53.785 131.647 54.1883 132.219 54.1963 133.997L54.2125 136.347L55.6077 134.518C56.8738 132.86 57.519 132.741 62.5837 133.236C68.2613 133.792 70.6485 135.535 67.0838 136.526C65.5676 136.945 65.366 137.449 65.737 139.885C66.1322 142.483 65.987 142.756 64.2128 142.756C63.1321 142.756 62.2046 142.466 62.1643 142.115ZM69.5033 138.107V133.356H72.7937C75.0841 133.356 75.9793 133.681 75.7373 134.424C75.5357 135.014 74.7857 135.441 74.0518 135.373C73.326 135.304 72.7292 135.595 72.7292 136.014C72.7292 136.432 73.2776 136.774 73.9389 136.774C75.5357 136.774 75.4712 137.586 73.7373 139.09C72.4308 140.227 72.463 140.287 74.1889 139.893C75.6083 139.569 75.9873 139.808 75.7938 140.902C75.6163 141.868 74.5679 142.414 72.5195 142.594L69.5033 142.859V138.107ZM77.56 140.833C77.5519 140.244 77.3261 138.33 77.0519 136.578C76.6003 133.664 76.7454 133.322 78.8423 132.476C80.1004 131.963 81.9391 131.766 82.923 132.031C86.4231 132.963 85.9796 138.483 82.3988 138.483C81.6246 138.483 80.7939 139.253 80.5601 140.193C80.1004 142.047 77.5761 142.585 77.56 140.833ZM82.4069 135.492C82.4069 134.792 81.8585 134.211 81.1972 134.211C80.5359 134.211 79.9874 134.792 79.9874 135.492C79.9874 136.193 80.5359 136.774 81.1972 136.774C81.8585 136.774 82.4069 136.193 82.4069 135.492ZM45.309 139.902C45.309 138.21 41.704 136.663 40.5669 137.868C39.8975 138.577 39.4217 138.569 38.7442 137.851C38.0587 137.125 38.3491 136.219 39.8975 134.27C41.0427 132.835 42.204 130.886 42.4863 129.946C43.0992 127.887 43.4621 127.852 47.2284 129.519C50.5833 131.006 50.5511 130.912 48.9058 134.279C48.2203 135.68 47.8574 137.159 48.0994 137.578C48.7849 138.748 47.68 141.047 46.43 141.047C45.817 141.047 45.309 140.534 45.309 139.902ZM45.7283 134.142C46.0267 133.168 46.0267 132.125 45.7445 131.818C45.1396 131.177 43.7283 133.279 43.7121 134.851C43.6879 136.586 45.1557 136.074 45.7283 134.142ZM88.6571 137.885C87.157 137.475 86.1167 134.501 86.5764 131.937C86.9635 129.801 91.1572 127.733 92.8266 128.844C94.6089 130.032 94.8831 132.399 93.3185 133.04C92.5282 133.356 91.5523 132.937 90.8588 131.972C89.7619 130.433 89.7136 130.45 89.6894 132.313C89.6571 134.672 91.7459 135.697 93.8024 134.339C95.004 133.544 95.3105 133.587 95.3105 134.527C95.3105 136.749 91.5281 138.663 88.6571 137.885ZM35.7603 133.954C35.2845 133.339 35.1151 131.895 35.3893 130.749C35.8732 128.716 35.8409 128.699 34.2602 130.168C32.8005 131.536 29.5182 131.433 30.1633 130.049C31.5989 126.964 34.3812 123.101 35.1716 123.101C36.7845 123.101 37.2442 124.075 36.4055 125.725C35.8974 126.733 35.9054 127.451 36.4377 127.801C36.8893 128.1 37.47 127.733 37.7361 126.998C38.2845 125.502 40.1153 125.22 40.8653 126.511C41.2766 127.203 37.599 135.065 36.8652 135.065C36.7361 135.065 36.2442 134.561 35.7603 133.954ZM97.7299 134.356C97.7299 133.937 96.8509 132.219 95.7702 130.536C94.0927 127.912 93.9798 127.331 94.9798 126.451C95.9073 125.639 96.4718 125.742 97.7057 126.93C99.2139 128.374 99.2622 128.34 99.1009 126.007C98.988 124.306 99.359 123.503 100.351 123.289C101.456 123.041 101.762 123.554 101.762 125.605C101.762 127.835 102.069 128.228 103.779 128.228C106.174 128.228 106.166 128.263 104.424 124.391C103.093 121.435 103.109 121.298 104.843 119.461C106.319 117.888 106.859 117.751 108.021 118.615C108.795 119.187 110.424 120.255 111.642 120.973C113.698 122.195 113.859 122.178 113.859 120.759C113.859 119.922 113.045 118.854 112.053 118.392C109.408 117.153 109.424 115.068 112.101 111.889L114.472 109.077L117.343 111.598C120.311 114.205 120.892 116.786 118.464 116.572C117.626 116.504 117.085 117.068 117.085 117.999C117.085 120.059 112.537 124.81 110.569 124.81C109.642 124.81 109.004 125.408 108.988 126.306C108.94 128.391 103.625 131.843 101.545 131.151C100.27 130.715 100.012 130.895 100.399 131.963C100.714 132.826 100.311 133.664 99.3106 134.228C98.4396 134.723 97.7299 134.783 97.7299 134.356ZM107.843 122.306C107.553 121.802 106.924 121.392 106.456 121.392C105.924 121.392 105.98 121.879 106.617 122.691C107.722 124.109 108.714 123.793 107.843 122.306ZM114.513 114.495C114.351 113.983 113.876 113.573 113.456 113.573C113.037 113.573 112.561 113.983 112.4 114.495C112.238 115 112.714 115.41 113.456 115.41C114.198 115.41 114.674 115 114.513 114.495ZM24.4454 125.186C20.8808 120.392 27.2036 115.008 31.0746 119.537C32.736 121.486 32.7602 123.041 31.1472 125.477C29.4617 128.023 26.4535 127.895 24.4454 125.186ZM28.7036 122.674C29.5585 121.281 29.6956 120.537 29.0827 120.537C28.131 120.537 26.0261 122.998 25.9777 124.169C25.9213 125.545 27.4455 124.708 28.7036 122.674ZM19.1307 119.802C18.8727 118.931 18.913 117.486 19.2275 116.598C19.7437 115.153 19.6549 115.111 18.4049 116.188C17.1952 117.239 16.8403 117.23 15.8081 116.136C14.7596 115.025 15.0096 114.547 17.9049 112.077C20.663 109.735 21.3889 109.462 22.4373 110.376C23.5502 111.359 23.5341 111.59 22.2518 112.581C21.4695 113.188 21.0663 113.931 21.3566 114.239C21.6469 114.547 22.4776 114.282 23.1954 113.641C24.3244 112.65 24.6793 112.726 25.6793 114.162C26.7519 115.709 26.6632 115.871 24.5825 116.264C22.8486 116.598 22.2679 117.239 22.0663 119.042C21.776 121.708 19.8566 122.204 19.1307 119.802ZM66.2774 108.573C66.2774 108.103 67.1806 107.719 68.2935 107.719C69.4065 107.719 70.3097 108.103 70.3097 108.573C70.3097 109.043 69.4065 109.428 68.2935 109.428C67.1806 109.428 66.2774 109.043 66.2774 108.573ZM6.66261 101.284C5.21901 99.1473 3.0012 96.5921 1.72697 95.5922C-0.894078 93.5412 -0.563422 91.8748 2.93669 89.4478C4.79965 88.1574 5.21095 88.1403 7.36424 89.3282C10.6789 91.1399 11.695 91.0288 10.6627 88.9778C9.04978 85.7902 9.6627 82.3207 12.1547 80.4406L14.4854 78.6802L17.8081 83.3462C19.6307 85.9099 21.8566 88.4223 22.7357 88.9265C24.8486 90.1229 24.768 91.9175 22.526 93.6096C20.7759 94.9342 20.5985 94.8487 17.5662 91.3108C14.2757 87.4567 14.2838 87.4396 15.9613 93.8232C16.6549 96.4981 14.4128 97.2074 10.8885 95.4299L8.06588 94.0027L10.9531 97.7287L13.8322 101.463L11.9773 103.309C10.9611 104.326 9.9369 105.155 9.71109 105.155C9.47721 105.155 8.1062 103.412 6.66261 101.284ZM126.118 104.129C125.586 103.565 125.15 102.591 125.15 101.967C125.15 101.344 124.513 100.592 123.739 100.301C121.206 99.3609 117.892 95.4811 117.892 93.4558C117.892 91.2424 120.489 88.0634 122.303 88.0634C122.948 88.0634 124.803 89.294 126.424 90.798C129.223 93.4045 129.416 93.4643 130.457 91.9603C131.812 90.0033 131.287 88.9436 129.255 89.5077C127.521 89.9862 124.061 86.8414 124.553 85.2348C124.731 84.6707 125.828 84.0982 127.005 83.9529C128.578 83.7564 129.981 84.5426 132.36 86.9439C137.199 91.8406 137.28 93.7207 132.868 99.1985C130.844 101.711 129.183 104.078 129.183 104.463C129.183 105.505 127.215 105.292 126.118 104.129ZM126.561 95.9682C127.005 94.5667 124.473 93.5669 123.392 94.712C122.924 95.2077 122.803 96.0452 123.118 96.5835C123.828 97.8056 126.11 97.3954 126.561 95.9682ZM61.4385 96.6092C61.4385 92.4218 61.4869 92.3363 63.874 92.3363C65.6806 92.3363 66.5435 92.8832 67.2209 94.4471C68.221 96.763 67.0677 99.1729 64.9709 99.1729C64.3579 99.1729 63.8579 99.5575 63.8579 100.027C63.8579 100.497 63.3095 100.882 62.6482 100.882C61.7369 100.882 61.4385 99.8395 61.4385 96.6092ZM65.4709 95.7546C65.4709 94.8146 65.108 94.0454 64.6644 94.0454C64.2208 94.0454 63.8579 94.8146 63.8579 95.7546C63.8579 96.6946 64.2208 97.4638 64.6644 97.4638C65.108 97.4638 65.4709 96.6946 65.4709 95.7546ZM68.6968 100.096C68.6968 99.6686 69.1081 99.1729 69.6081 98.9934C70.2452 98.7712 70.1162 97.8398 69.2049 95.9768C67.6 92.6781 67.5838 92.3363 69.0436 92.3363C69.6807 92.3363 70.4549 93.1994 70.7694 94.242L71.342 96.1562L72.0114 94.242C72.3743 93.1994 73.0921 92.3363 73.6002 92.3363C74.7212 92.3363 73.9389 96.1904 72.2533 98.9593C71.092 100.856 68.6968 101.626 68.6968 100.096ZM53.8737 96.6775C54.5754 92.5328 54.7367 92.3363 57.4545 92.3363C59.3739 92.3363 59.8255 92.7038 59.8336 94.2591C59.8417 95.3188 60.0513 96.9852 60.3014 97.9594C60.7046 99.5746 60.4062 99.7455 57.0513 99.7455H53.3495L53.8737 96.6775ZM57.1319 94.6864C56.9061 94.0967 56.7287 94.5753 56.7287 95.7546C56.7287 96.9339 56.9061 97.4125 57.1319 96.8228C57.3577 96.2332 57.3577 95.276 57.1319 94.6864ZM42.0831 95.7546C42.0831 93.2849 42.4218 92.3363 43.2928 92.3363C43.9541 92.3363 44.5105 93.0114 44.5267 93.8318C44.5509 95.2589 44.6073 95.2589 45.6235 93.8318C47.4058 91.345 48.5349 92.0885 48.5349 95.7546C48.5349 98.2243 48.1961 99.1729 47.3251 99.1729C46.6638 99.1729 46.1074 98.4978 46.0912 97.6774C46.067 96.2503 46.0267 96.2503 45.2444 97.6774C43.7202 100.455 42.0831 99.4549 42.0831 95.7546ZM75.4873 98.1987C75.1647 97.6603 75.7776 96.4981 76.8503 95.5837L78.7777 93.9343L76.8664 94.5069C75.4631 94.9257 75.0518 94.7718 75.3179 93.9173C75.5115 93.2849 76.6003 92.6439 77.7213 92.5072C79.4471 92.285 79.8503 92.6696 80.2778 94.9427C80.5601 96.4297 80.5842 97.985 80.3423 98.4038C79.6971 99.5062 76.1567 99.3524 75.4873 98.1987ZM82.173 98.6431C81.8585 98.3098 81.6004 96.7545 81.6004 95.182C81.6004 93.2251 81.9794 92.3363 82.8101 92.3363C83.4714 92.3363 84.0198 92.6781 84.0198 93.0883C84.0198 93.5071 84.7779 94.054 85.6973 94.3104C88.2054 95.0026 87.5038 98.6602 84.7941 99.002C83.673 99.1387 82.4875 98.9763 82.173 98.6431ZM85.6328 96.6092C85.6328 96.1392 85.2699 95.7546 84.8263 95.7546C84.3827 95.7546 84.0198 96.1392 84.0198 96.6092C84.0198 97.0792 84.3827 97.4638 84.8263 97.4638C85.2699 97.4638 85.6328 97.0792 85.6328 96.6092ZM88.3587 96.6348C88.5119 93.4472 89.7458 92.1141 92.1894 92.4816C93.754 92.7123 94.1492 93.3447 94.3508 95.9682C94.5443 98.4123 94.3024 99.1729 93.3427 99.1729C92.6491 99.1729 92.0846 98.7114 92.0846 98.1474C92.0846 97.3527 91.8669 97.3527 91.1168 98.1474C89.4232 99.942 88.2377 99.284 88.3587 96.6348ZM92.0846 94.9C92.0846 94.43 91.7217 94.0454 91.2781 94.0454C90.8346 94.0454 90.4716 94.43 90.4716 94.9C90.4716 95.37 90.8346 95.7546 91.2781 95.7546C91.7217 95.7546 92.0846 95.37 92.0846 94.9ZM112.932 92.1654C110.924 91.4475 109.521 89.0291 108.803 85.0724C108.521 83.5513 108.375 83.6196 107.416 85.7133C106.238 88.2856 105.27 88.5505 102.278 87.1063L100.295 86.1492L103.045 80.4833C104.553 77.3641 105.787 74.168 105.795 73.3733C105.795 71.2454 106.714 70.989 109.634 72.2879C112.65 73.6296 112.617 73.51 111.077 77.4069C109.634 81.0644 110.617 81.2268 113.351 77.7829C115.376 75.2362 115.464 75.2191 118.263 76.4583C119.835 77.1505 121.118 78.1161 121.118 78.5947C121.118 79.0733 119.666 80.3466 117.9 81.4148C114.4 83.5342 113.924 85.3031 115.876 88.918C116.513 90.0973 117.045 91.3023 117.053 91.6014C117.11 92.6525 115.053 92.9345 112.932 92.1654ZM25.518 87.8498C25.2116 86.3201 24.018 83.0129 22.8647 80.4919C20.8243 76.031 20.8082 75.8857 22.3083 74.7235C24.8083 72.7836 26.3729 73.3391 27.9536 76.7403L29.4375 79.9449L30.0504 76.971C30.7279 73.6809 30.4375 72.681 28.7843 72.681C25.0825 72.681 23.8002 64.3404 26.7277 59.2642C28.8246 55.6237 32.486 53.7436 38.4781 53.2394C43.1395 52.8378 43.575 52.966 46.3493 55.5468C49.8897 58.8455 50.9785 63.1012 49.0591 66.1948C48.0187 67.8783 47.93 69.1516 48.5591 73.2451C48.9865 75.9883 49.3333 78.5263 49.3333 78.8767C49.3413 79.2271 50.1156 79.5177 51.0591 79.5177C52.656 79.5177 52.7366 79.2186 52.2285 75.1251C51.9221 72.7067 51.4704 69.6473 51.2204 68.3313C50.8333 66.2717 51.0672 65.8444 52.8737 65.3659C56.4464 64.4173 57.4061 65.3744 57.4142 69.878C57.4303 75.5695 58.1319 77.8085 59.8981 77.8085C61.2691 77.8085 61.3498 77.2445 60.8901 70.9719C60.4869 65.4342 60.6078 64.1353 61.5191 64.1267C62.1401 64.1182 63.4063 63.896 64.3418 63.6311C65.8983 63.1867 66.0757 63.5884 66.5193 68.5534C66.7935 71.5274 67.2532 75.185 67.5435 76.6805C68.0435 79.2698 67.9226 79.4407 64.9547 80.2611C61.0272 81.355 50.0914 82.936 46.5025 82.936H43.7767L43.2282 77.8256C42.9299 75.014 42.204 72.0316 41.6234 71.2026C40.6233 69.7755 40.4701 69.7926 38.8007 71.5274L37.0426 73.3733L39.4781 78.5434C42.0508 83.9956 41.9379 84.6793 38.2604 85.8757C36.7522 86.3714 36.1393 85.9184 34.6312 83.2094L32.8086 79.9449L32.5666 83.9871C32.3811 86.9781 31.865 88.3711 30.5666 89.3282C27.752 91.4219 26.1471 90.9519 25.518 87.8498ZM38.0507 66.8187C38.0507 65.9983 37.6555 64.9129 37.1716 64.4002C36.5829 63.7764 36.5668 63.2978 37.1232 62.9303C37.5829 62.6312 38.9297 63.4516 40.1233 64.7591C41.4379 66.1948 42.1072 66.5623 41.833 65.6821C41.575 64.8959 41.8008 64.084 42.3331 63.8789C43.6073 63.4003 40.3975 58.6831 38.5265 58.2985C35.3167 57.6234 31.5021 62.9132 34.0183 64.5626C34.4618 64.8531 34.8248 65.759 34.8248 66.5708C34.8248 67.4339 35.4941 68.1005 36.4377 68.1774C37.4781 68.2543 38.0507 67.7758 38.0507 66.8187ZM72.9308 85.098C69.7129 83.594 69.6646 82.9018 72.6404 81.1072L74.9712 79.7057L72.2372 73.9544C70.7291 70.7924 69.5033 67.2887 69.5033 66.1692C69.5033 64.4173 69.8904 64.1353 72.2937 64.1353C75.3986 64.1353 76.2212 65.195 77.0922 70.331C77.8422 74.732 78.8342 74.3475 79.9955 69.22C80.9391 65.0668 81.0762 64.9044 83.5037 65.1608C85.7538 65.3915 86.0199 65.6992 85.8667 67.904C85.6328 71.3308 81.802 79.0733 78.3906 83.03C75.6002 86.2603 75.5115 86.2944 72.9308 85.098ZM91.4314 84.0384C88.77 83.5 88.5603 82.0985 90.3184 76.595L91.8669 71.741L89.5119 71.2368C87.8909 70.895 87.2941 70.3566 87.6087 69.502C87.8506 68.8269 88.0522 67.9125 88.0522 67.4852C88.0522 66.2632 92.9475 66.5537 97.7864 68.0578C103.069 69.6986 103.456 70.0319 102.843 72.5016C102.44 74.1509 101.996 74.356 99.7623 73.9116C97.2541 73.4074 97.1412 73.51 96.6493 76.6719C96.367 78.4665 96.1331 81.0046 96.125 82.295C96.117 84.722 95.6573 84.8929 91.4314 84.0384ZM96.5202 64.8531C92.3507 62.409 90.4716 59.6146 90.4716 55.8544C90.4716 53.8291 90.2539 52.1712 89.9878 52.1712C89.7297 52.1712 88.4555 52.966 87.1651 53.9402C80.2213 59.1787 68.7129 61.7168 60.2046 59.871C50.5914 57.7943 39.9459 49.9921 38.1716 43.7195C37.0668 39.8055 37.8732 32.3878 39.9943 27.0125C41.2604 23.8078 41.2524 23.7737 38.8652 21.415C33.978 16.5781 33.4699 10.7072 37.5668 6.36595C39.9136 3.87913 40.8572 3.46039 44.1234 3.46039C47.3977 3.46039 48.301 3.86204 50.4623 6.29758L52.9866 9.12623L57.0351 7.24616C59.261 6.21213 61.5917 4.71662 62.2127 3.93041C64.5112 0.990667 71.1162 -1.2996 71.1162 0.836844C71.1162 1.28122 72.1162 1.75979 73.334 1.90506C75.1728 2.1358 75.5196 2.546 75.3421 4.3577C75.1728 6.15231 75.6325 6.72487 77.9874 7.62218C80.7213 8.67331 80.9391 8.60494 83.1569 6.09249C85.0037 3.99023 86.1328 3.46039 88.7377 3.46039C95.004 3.46039 98.5364 6.91288 98.5364 13.0316C98.5283 16.2619 96.1492 20.8681 93.7863 22.2098C92.1814 23.1156 92.1814 23.1413 93.883 27.1749C94.9476 29.7215 95.7218 33.7209 95.9557 37.8913C96.3025 44.0869 96.4234 44.4544 97.6977 43.2324C99.6574 41.3523 103.141 41.5659 104.182 43.6255C104.658 44.5655 105.867 45.3346 106.875 45.3346C109.311 45.3346 110.634 46.8814 110.634 49.7271C110.634 51.0175 110.996 52.308 111.44 52.5985C112.972 53.5984 112.263 58.008 110.134 60.6828C106.367 65.4257 100.553 67.2032 96.5202 64.8531ZM74.4873 52.5643C81.5117 50.0262 84.7941 43.5571 81.1891 39.344C80.052 38.0109 79.9229 37.37 80.6488 36.6008C82.2133 34.943 81.802 29.3113 79.9874 27.3885C78.1326 25.423 73.3985 25.0812 72.0356 26.816C71.5517 27.4398 70.8581 29.4224 70.5114 31.217C69.9307 34.1653 69.6081 34.4986 67.2613 34.567C65.3822 34.6268 64.6644 34.2764 64.6644 33.2851C64.6644 32.5331 64.2692 30.7299 63.7934 29.2771C62.5837 25.5939 59.4788 24.5941 56.0028 26.7647C52.9302 28.6875 51.9463 31.7554 53.2366 35.3874C53.9786 37.4725 53.9221 38.2331 52.9544 39.3697C52.3011 40.1388 51.7608 42.036 51.7608 43.5913C51.7608 46.9498 55.6561 51.3423 59.9304 52.7865C63.9708 54.1538 70.3501 54.0513 74.4873 52.5643ZM62.8498 48.1034C61.632 47.3001 60.632 46.1806 60.632 45.6166C60.632 43.7024 62.1724 43.5486 63.8257 45.3004C65.6241 47.2061 67.9629 47.5223 70.3178 46.1892C72.5598 44.9159 73.1001 46.6763 70.9469 48.2658C68.6161 50.0006 65.6402 49.9408 62.8498 48.1034ZM64.4144 42.2581C63.0353 41.4634 62.253 40.3866 62.4063 39.515C62.7934 37.3871 72.1808 37.3956 72.5679 39.515C72.7292 40.4208 71.9227 41.4548 70.3984 42.2923C67.4629 43.8989 67.2774 43.8989 64.4144 42.2581ZM69.5033 39.3526C69.5033 38.8826 68.6 38.498 67.4871 38.498C66.3741 38.498 65.4709 38.8826 65.4709 39.3526C65.4709 39.8226 66.3741 40.2072 67.4871 40.2072C68.6 40.2072 69.5033 39.8226 69.5033 39.3526ZM73.6485 35.6523C72.8824 34.6695 73.0518 34.3106 74.5276 33.8149C76.068 33.2851 76.1406 33.1227 74.947 32.7894C72.8179 32.1912 73.2534 30.8068 75.576 30.8068C77.9067 30.8068 79.0358 32.9262 77.81 34.9857C76.7132 36.8316 74.8099 37.1392 73.6485 35.6523ZM54.9867 35.1823C54.9867 34.7635 56.2448 33.4133 57.7771 32.1741L60.5675 29.9181L61.8821 32.0289C63.4144 34.5157 62.753 36.5923 60.9385 34.9942C60.0594 34.2166 59.2933 34.208 57.7448 34.9515C55.3093 36.1308 54.9867 36.1565 54.9867 35.1823Z" fill="white"/>
</svg>
