<svg width="141" height="140" viewBox="0 0 141 140" fill="none" xmlns="http://www.w3.org/2000/svg">
<path fill-rule="evenodd" clip-rule="evenodd" d="M67.1028 0.0702542C62.2133 0.456862 59.9422 0.70745 58.264 1.04556C57.249 1.25017 55.9377 1.50694 55.3501 1.6163C53.8848 1.88853 52.7435 2.16578 51.3678 2.58349C50.7267 2.77805 49.4155 3.17451 48.4539 3.46432C46.6898 3.99603 45.5996 4.40582 43.7551 5.23081C43.2007 5.4787 42.6762 5.68137 42.5896 5.68099C42.3005 5.68002 38.8479 7.35609 36.604 8.58682C35.6425 9.11408 34.6152 9.64115 34.3215 9.75785C34.0276 9.87455 33.7873 10.0484 33.7873 10.1443C33.7873 10.2401 33.6863 10.3185 33.5627 10.3185C33.4394 10.3185 33.0254 10.5577 32.6431 10.8499C32.2608 11.142 31.7953 11.4681 31.6089 11.5744C31.4222 11.6806 30.4155 12.3511 29.3718 13.0642C27.7235 14.1904 26.9093 14.823 25.6284 15.9727C25.4681 16.1165 24.8999 16.5711 24.3657 16.9828C22.7104 18.2584 18.4783 22.4958 16.9353 24.4227C16.127 25.4322 15.3132 26.4055 15.1271 26.5856C14.7672 26.9342 13.2296 28.9437 12.9044 29.4905C12.7976 29.67 12.1946 30.5813 11.5642 31.5153C9.94098 33.9213 9.85395 34.0594 9.21503 35.2422C8.89917 35.8267 8.40147 36.7396 8.10892 37.2709C7.33635 38.6734 6.71064 39.9739 6.01733 41.6181C5.68126 42.4151 5.23582 43.4244 5.02738 43.8612C4.81894 44.2979 4.64838 44.7573 4.64838 44.8823C4.64838 45.0071 4.52386 45.302 4.37176 45.5373C4.21965 45.7726 3.96129 46.4434 3.79753 47.0279C2.99543 49.8924 2.64848 51.0058 2.50085 51.1884C2.41188 51.2983 2.24773 51.9069 2.13564 52.5408C2.02375 53.1748 1.80035 54.169 1.63911 54.75C1.47788 55.3309 1.34597 56.012 1.34597 56.2634C1.34597 56.5147 1.18047 57.3871 0.978047 58.2016C0.775823 59.0164 0.555727 60.6828 0.488902 61.9048C0.422077 63.1269 0.283764 64.4745 0.18139 64.8995C-0.0604632 65.9042 -0.0604632 74.328 0.18139 75.3327C0.283764 75.7578 0.419357 77.1054 0.483074 78.3274C0.549511 79.6032 0.757757 81.0968 0.972414 81.8351C1.17775 82.5424 1.34597 83.3711 1.34597 83.6767C1.34597 83.9826 1.4771 84.7081 1.63756 85.2891C1.79782 85.87 2.02025 86.8237 2.13175 87.4081C2.24326 87.9926 2.50551 88.8781 2.71434 89.376C2.92336 89.8739 3.09431 90.4651 3.09431 90.6896C3.09431 90.9141 3.26914 91.4576 3.48283 91.8975C3.69651 92.3374 3.87135 92.8605 3.87135 93.0598C3.87135 93.4534 4.40362 94.8495 5.14938 96.4116C5.40794 96.9535 5.61949 97.4752 5.6191 97.5708C5.6189 97.6665 5.785 98.0925 5.98819 98.5176C7.03641 100.709 7.78023 102.219 7.93933 102.478C8.03704 102.638 8.17128 102.899 8.23752 103.058C8.30357 103.217 8.56737 103.696 8.82341 104.121C9.07944 104.546 9.46796 105.241 9.68708 105.666C10.1539 106.572 10.3664 106.904 11.9817 109.251C12.6495 110.221 13.1958 111.094 13.1958 111.19C13.1958 111.287 13.2859 111.366 13.3961 111.366C13.5064 111.366 13.6546 111.518 13.7255 111.704C13.7966 111.89 14.496 112.809 15.2798 113.747C16.0636 114.686 16.8115 115.592 16.9415 115.763C17.3685 116.323 24.2004 123.046 24.7445 123.441C25.0367 123.654 25.4207 123.962 25.5977 124.125C26.169 124.653 28.2429 126.333 28.5693 126.533C28.7433 126.639 29.3638 127.052 29.9481 127.45C30.5327 127.849 31.0673 128.175 31.1364 128.175C31.2054 128.175 31.4148 128.308 31.6019 128.472C32.4778 129.237 33.187 129.72 33.4322 129.72C33.58 129.72 33.8528 129.897 34.0383 130.112C34.2238 130.328 34.6366 130.556 34.9556 130.619C35.2745 130.683 35.5356 130.798 35.5356 130.875C35.5356 130.952 36.1258 131.306 36.8469 131.662C37.5682 132.019 38.3767 132.455 38.6438 132.632C38.9109 132.809 39.348 133.02 39.6151 133.099C39.8822 133.179 40.2318 133.357 40.3921 133.495C40.5524 133.632 41.0052 133.805 41.3986 133.877C41.7917 133.95 42.1587 134.126 42.2139 134.269C42.269 134.412 42.6467 134.59 43.0529 134.665C43.4593 134.739 44.0001 134.961 44.255 135.158C44.5098 135.355 44.9044 135.517 45.132 135.517C45.3595 135.517 45.8504 135.677 46.2228 135.874C46.5952 136.07 47.2774 136.29 47.739 136.361C48.2007 136.433 48.769 136.612 49.0017 136.758C49.2346 136.905 49.7915 137.084 50.2395 137.155C50.6873 137.227 51.3833 137.453 51.786 137.657C52.2097 137.872 52.9146 138.028 53.4582 138.028C53.9751 138.028 54.6608 138.164 54.9821 138.329C55.3035 138.494 56.1951 138.701 56.9638 138.789C57.7323 138.876 58.8419 139.079 59.4295 139.24C63.1651 140.26 79.1855 140.164 82.0607 139.105C82.4881 138.947 83.1874 138.813 83.6148 138.807C84.0422 138.801 84.9461 138.623 85.6233 138.412C86.3006 138.201 87.1564 138.028 87.5251 138.028C87.8938 138.028 88.5197 137.867 88.9162 137.669C89.3124 137.472 90.0302 137.25 90.511 137.176C90.9918 137.103 91.56 136.93 91.7737 136.793C91.9874 136.656 92.5369 136.485 92.995 136.413C93.4529 136.341 94.151 136.11 94.5462 135.9C94.9413 135.689 95.397 135.516 95.5588 135.516C95.7207 135.516 96.1226 135.352 96.4521 135.152C96.7815 134.952 97.3219 134.73 97.6528 134.657C97.9838 134.585 98.3587 134.401 98.4859 134.248C98.6134 134.096 98.851 133.971 99.0143 133.971C99.1775 133.971 99.757 133.763 100.302 133.509C100.847 133.255 101.424 132.99 101.584 132.92C101.744 132.85 102.225 132.584 102.652 132.327C103.08 132.071 103.732 131.724 104.102 131.557C104.472 131.389 104.909 131.135 105.073 130.992C105.238 130.849 105.578 130.67 105.83 130.593C106.082 130.517 106.937 130.006 107.729 129.459C108.522 128.912 109.382 128.334 109.64 128.175C111.767 126.863 115.466 124.014 115.823 123.413C115.908 123.269 116.098 123.151 116.246 123.151C116.626 123.151 121.609 118.318 123.012 116.587C123.66 115.788 124.786 114.427 125.514 113.564C126.242 112.701 126.838 111.897 126.838 111.777C126.838 111.657 126.927 111.559 127.037 111.559C127.146 111.559 127.323 111.363 127.43 111.124C127.595 110.755 128.152 109.904 128.728 109.139C129.372 108.286 130.14 107.123 130.14 107.002C130.14 106.922 130.26 106.719 130.408 106.551C130.654 106.27 131.745 104.339 132.436 102.961C132.596 102.643 132.888 102.151 133.085 101.869C133.281 101.587 133.442 101.228 133.442 101.071C133.442 100.915 133.568 100.683 133.721 100.556C133.875 100.43 134.06 100.057 134.132 99.7282C134.205 99.3994 134.473 98.7403 134.728 98.2639C134.982 97.7872 135.191 97.247 135.191 97.0635C135.191 96.8797 135.316 96.6259 135.47 96.4991C135.623 96.3726 135.804 96.0178 135.872 95.711C135.94 95.404 136.164 94.8057 136.37 94.3812C136.576 93.9567 136.745 93.4548 136.745 93.2658C136.745 93.0767 136.91 92.4856 137.112 91.9522C137.914 89.8346 138.772 86.651 139.183 84.2664C139.344 83.3355 139.568 82.3357 139.681 82.0445C139.793 81.7536 139.969 80.3441 140.072 78.9126C140.175 77.4812 140.34 75.9597 140.44 75.5315C140.672 74.5319 140.669 65.9469 140.436 64.8029C140.339 64.3247 140.202 62.9771 140.132 61.8082C140.063 60.6393 139.84 59.0164 139.638 58.2016C139.436 57.3871 139.27 56.5141 139.27 56.2618C139.27 56.0097 139.13 55.2852 138.959 54.6518C138.762 53.9159 138.574 53.1778 138.394 52.4377C138.253 51.8532 137.906 50.636 137.622 49.7328C137.338 48.8295 136.945 47.5385 136.75 46.8638C136.555 46.1892 136.299 45.5413 136.182 45.4244C136.064 45.3074 135.968 45.0856 135.968 44.9316C135.968 44.7774 135.739 44.1645 135.46 43.5695C134.356 41.2139 134.231 40.9231 134.109 40.4088C134.039 40.1155 133.914 39.8336 133.83 39.7824C133.747 39.7312 133.316 38.9713 132.873 38.0936C131.648 35.6663 130.882 34.2948 130.042 33.0204C129.622 32.3828 129.188 31.7102 129.078 31.5259C128.657 30.8222 126.636 27.9649 126.303 27.6032C126.111 27.3948 125.213 26.3114 124.307 25.1957C122.098 22.4736 118.812 19.1297 116.457 17.2073C115.396 16.3408 114.109 15.2666 113.597 14.8205C112.819 14.1423 111.106 12.9272 108.885 11.4778C108.565 11.2689 108.245 11.0596 107.926 10.8499C106.571 9.95917 106.251 9.77388 103.818 8.4678C101.92 7.44902 100.28 6.65263 98.8642 6.06238C98.1689 5.77098 97.4768 5.47226 96.7879 5.16628C96.2335 4.9184 95.709 4.71572 95.6224 4.71611C95.5355 4.7163 95.115 4.5513 94.6876 4.34921C93.9881 4.01844 93.1407 3.74389 89.2483 2.5862C88.1442 2.25794 86.8028 1.95364 82.5464 1.06585C81.5314 0.854095 79.783 0.624951 78.6612 0.556363C77.5394 0.487968 76.2281 0.360645 75.7473 0.273702C74.4452 0.0379889 69.1013 -0.0875959 67.1028 0.0702542ZM9.01922 46.5422C7.46204 47.269 7.16229 48.1029 8.22373 48.7553L8.88499 49.1618L9.80675 48.6746C11.4881 47.7852 13.0015 48.2615 13.0015 49.6794C13.0015 50.3126 12.7797 50.5871 10.379 52.9242C8.01937 55.2214 7.75653 55.5437 7.75653 56.1407C7.75653 57.24 7.85988 57.2678 11.9331 57.2678C15.9838 57.2678 16.1097 57.235 16.1097 56.1803C16.1097 55.1455 15.6996 54.9171 13.9474 54.9766C11.7513 55.051 11.7311 54.9101 13.6581 52.9501C15.4612 51.1159 15.8177 50.4129 15.6778 48.9669C15.5743 47.8936 15.1178 47.2072 14.1407 46.6546C13.2677 46.1608 9.99032 46.0889 9.01922 46.5422ZM18.0801 46.5932C17.7599 47.1942 17.3994 51.8656 17.6537 52.1187C17.7772 52.2418 18.798 52.3919 19.9385 52.4549C21.7729 52.5563 22.0393 52.6172 22.3573 53.0076C23.4671 54.3709 21.8318 55.5236 19.6064 54.947C17.7933 54.4772 17.5649 54.4861 17.1999 55.0402C16.4048 56.2469 17.6084 57.1701 20.268 57.3938C23.6949 57.6819 25.8413 55.7811 25.3677 52.878C25.1416 51.4927 23.3424 50.3124 21.4561 50.3124C20.491 50.3124 20.1891 50.0527 20.1891 49.2225C20.1891 48.3819 20.3919 48.298 22.2836 48.3569C24.1289 48.4145 24.8514 48.1247 24.8514 47.327C24.8514 46.3617 24.4931 46.255 21.2506 46.255C18.6007 46.255 18.2397 46.2935 18.0801 46.5932ZM30.1657 46.5474C29.9134 47.2012 32.0306 48.7714 33.2383 48.8261C34.4361 48.8802 34.433 48.4244 33.2272 47.2253C32.3121 46.3151 32.1907 46.255 31.265 46.255C30.5636 46.255 30.2457 46.3395 30.1657 46.5474ZM116.25 53.0283C114.132 53.4793 113.431 53.6924 112.268 54.2397C107.791 56.3463 104.892 60.3849 104.566 64.9695C104.414 67.1038 104.772 69.796 105.384 71.1276C105.645 71.6933 105.858 72.2116 105.858 72.2793C105.858 72.3469 105.991 72.5399 106.154 72.7082C106.601 73.169 107.397 74.3222 107.532 74.7048C107.672 75.1007 107.819 75.1148 111.297 75.0647C114.896 75.013 114.823 75.0651 113.346 73.5964C107.527 67.8083 110.997 58.2078 118.905 58.2171C122.595 58.2215 125.19 59.9339 126.579 63.2806C127.626 65.8053 127.264 70.6851 125.948 71.7715C125.796 71.8965 125.672 72.0897 125.672 72.2006C125.672 72.3115 125.543 72.5399 125.384 72.7082C125.226 72.8765 124.875 73.2679 124.603 73.578C124.332 73.8881 123.925 74.2359 123.699 74.3508C123.102 74.654 123.233 74.9374 124 75.0052C124.525 75.0516 124.694 74.9826 124.79 74.6816C124.894 74.3549 125.073 74.3029 126.02 74.3249C129.004 74.3943 130.564 74.2011 130.74 73.7405C130.832 73.5005 130.976 73.304 131.06 73.304C131.338 73.304 132.455 70.7253 132.855 69.1621C133.952 64.8787 132.629 60.16 129.441 56.9896C128.004 55.5601 127.064 54.96 124.307 53.7111C122.692 52.9796 118.249 52.6029 116.25 53.0283ZM32.802 53.5171C32.2963 54.123 32.7257 74.7562 33.257 75.3949C33.4163 75.5864 33.8287 75.6192 34.9045 75.5263C36.0376 75.4285 36.4376 75.4662 36.8049 75.7056C37.6379 76.2485 38.0029 76.1065 38.1352 75.1878C38.4332 73.1203 38.6333 68.7283 38.7601 61.4767L38.8977 53.6099L38.3695 53.4103C37.4668 53.0689 33.1062 53.1525 32.802 53.5171ZM45.1519 53.5276C44.8055 53.872 44.8577 62.9615 45.2538 71.2754C45.4549 75.4948 45.5755 76.3555 45.9048 75.9202C46.3646 75.3126 49.1866 75.4537 49.9283 76.1212C50.2344 76.3969 50.2739 76.3924 50.3735 76.0713C50.5641 75.4571 50.8621 71.5914 51 67.9425C51.0733 66.0031 51.2024 64.4165 51.2871 64.4165C51.5224 64.4165 52.4842 65.3798 53.2156 66.3486C53.5767 66.8268 54.2265 67.6145 54.6597 68.099C55.0929 68.5836 56.1465 69.7967 57.0013 70.7951C59.8011 74.0647 61.3618 75.7083 61.83 75.8803C62.0283 75.9531 62.5116 75.9268 62.9037 75.8217C63.2959 75.7168 64.5321 75.6202 65.6511 75.6073C68.2788 75.5767 68.2326 75.5709 68.1009 75.9123C68.0366 76.0789 68.0972 76.2021 68.2433 76.2021C68.8727 76.2021 69.3313 68.9171 69.335 58.8686C69.3367 53.8668 69.3185 53.6008 68.9611 53.4105C68.327 53.0731 63.6047 53.1527 63.3101 53.5059C63.1173 53.7368 63.0804 55.4312 63.1407 61.2788C63.2308 70.0466 63.3064 69.7923 61.3612 67.2746C60.09 65.6291 57.3651 62.2014 56.2621 60.8603C55.9208 60.4451 54.9656 59.2451 54.1396 58.1935C53.3137 57.1419 52.5092 56.1536 52.3521 55.9973C52.1949 55.841 51.6624 55.2019 51.169 54.5774C50.1189 53.2478 50.0338 53.2167 47.4478 53.2132C45.8712 53.2111 45.4059 53.2748 45.1519 53.5276ZM75.7421 53.5067C75.2669 54.0761 75.7477 75.3601 76.2454 75.7819C76.3454 75.8667 77.214 75.8658 78.1756 75.7796C79.1371 75.6934 80.1636 75.6194 80.4564 75.6148C80.8431 75.609 81.0156 75.4898 81.0865 75.1799C81.187 74.7405 81.5716 66.9713 81.5737 65.3342C81.5755 64.1495 81.8733 64.1441 82.8589 65.3114C83.2747 65.8035 84.2219 66.9122 84.9639 67.7748C85.706 68.6375 86.3863 69.4302 86.4755 69.5365C86.5648 69.6428 86.9062 70.034 87.2341 70.4059C87.7381 70.982 88.2379 71.5616 88.7336 72.1448C91.4353 75.3229 91.9344 75.621 94.2991 75.4703C97.5891 75.2605 98.5536 75.2531 98.775 75.4359C98.9261 75.5607 99.0681 75.57 99.1367 75.4596C99.3829 75.0638 99.6284 69.7011 99.7589 61.8714C99.9206 52.1709 100.291 53.2105 96.6731 53.2105C93.2378 53.2105 93.5411 52.3814 93.7157 61.2925C93.8169 66.4591 93.7975 68.6541 93.6499 68.7447C93.2592 68.9849 92.7483 68.4391 89.734 64.5601C88.0779 62.4292 86.6083 60.5696 86.4681 60.4276C86.3278 60.2857 85.5691 59.3645 84.7819 58.3805C83.9946 57.3967 83.235 56.4587 83.0942 56.2964C82.9532 56.1339 82.4496 55.5253 81.9755 54.944C80.5533 53.2006 80.5956 53.2196 78.1507 53.2148C76.4422 53.2115 75.9373 53.2725 75.7421 53.5067ZM115.376 75.4293C115.753 75.6714 115.959 75.6714 115.959 75.4293C115.959 75.3231 115.762 75.2375 115.522 75.239C115.169 75.2415 115.141 75.2778 115.376 75.4293ZM32.6889 77.0897C32.3824 77.5552 32.3814 77.6344 32.6753 78.2007C32.8494 78.5361 33.0848 79.1727 33.1985 79.6155C33.3121 80.0584 33.5342 80.667 33.6921 80.968C33.85 81.269 33.9796 81.6266 33.9804 81.7628C33.9815 82.0242 35.848 87.8116 36.1438 88.4708C36.239 88.6833 36.4407 89.2919 36.592 89.8232C37.3007 92.3146 37.6855 93.4899 38.0052 94.1404L38.3524 94.8466L40.6248 94.9009C43.1984 94.9625 43.1535 94.9879 43.6285 93.2044C43.7559 92.7262 44.1316 91.5959 44.4634 90.6927C44.7954 89.7894 45.1985 88.5772 45.3593 87.9988C45.5202 87.4205 45.7243 86.8554 45.8133 86.7429C45.9023 86.6307 46.0379 86.1925 46.1146 85.7694C46.2869 84.8215 46.5464 84.3168 46.8623 84.3168C47.0832 84.3168 47.2343 84.7423 48.0974 87.7946C48.2625 88.379 48.4665 88.9441 48.5504 89.0504C48.6345 89.1567 48.8059 89.7421 48.9316 90.3513C49.0572 90.9603 49.2344 91.5045 49.3253 91.5606C49.4164 91.6164 49.5878 92.1114 49.7061 92.6605C49.8246 93.2096 50.101 93.9478 50.3205 94.301L50.7195 94.9432L52.7921 94.9403C55.3351 94.9367 55.4484 94.8661 55.9245 92.9884C56.0426 92.5227 56.2994 91.7505 56.495 91.2723C56.8127 90.4964 57.1718 89.3767 57.8902 86.9251C58.0147 86.5001 58.1935 86.0698 58.2875 85.9688C58.3813 85.8679 58.4621 85.6071 58.4668 85.3891C58.4714 85.1714 58.607 84.6453 58.7683 84.2202C59.0867 83.3802 59.6383 81.6413 60.1996 79.709C60.3956 79.0344 60.6522 78.3865 60.7697 78.2696C61.5912 77.4526 60.714 76.7818 58.824 76.7818C57.1909 76.7818 56.3214 77.2217 56.3214 78.0479C56.3214 78.2227 56.2009 78.6396 56.0539 78.9745C55.9068 79.3093 55.549 80.3658 55.2586 81.3221C54.9682 82.2785 54.5763 83.4957 54.3877 84.027C54.1989 84.5583 53.8494 85.6451 53.6107 86.4421C53.4421 87.0057 53.2732 87.5692 53.104 88.1327C52.8801 88.875 52.4364 87.9791 51.9319 85.7659C51.8592 85.4471 51.7277 85.0943 51.6397 84.982C51.5515 84.8696 51.3524 84.3045 51.197 83.7262C51.0416 83.1477 50.7784 82.2833 50.6121 81.8051C50.0579 80.2116 49.5223 78.2673 49.5223 77.8488C49.5223 76.9929 49.0969 76.7338 47.528 76.6336C45.0918 76.478 44.6013 76.8878 43.8808 79.6799C43.7575 80.1581 43.59 80.6362 43.5086 80.7425C43.4272 80.8488 43.3031 81.24 43.233 81.6119C43.1626 81.9839 42.9319 82.7447 42.7199 83.3025C42.0324 85.1127 41.6107 86.3289 41.3799 87.1666C41.2517 87.6319 41.0363 87.9878 40.883 87.9878C40.6037 87.9878 40.5157 87.788 40.287 86.6353C40.2134 86.2634 40.079 85.8671 39.9884 85.7549C39.8979 85.6424 39.6968 85.0773 39.5414 84.499C39.386 83.9206 39.1061 83.0127 38.9192 82.4814C38.7325 81.9501 38.4192 81.0557 38.2232 80.4937C38.0272 79.9318 37.8667 79.2202 37.8667 78.9125C37.8667 77.1386 37.1552 76.5886 34.8602 76.5886C33.093 76.5886 33.006 76.6087 32.6889 77.0897ZM63.0179 76.7906C62.7651 77.1973 62.9213 94.6273 63.1793 94.7902C63.4536 94.9637 76.156 94.9975 76.6055 94.826C76.8497 94.7328 76.9129 94.3965 76.9129 93.1881C76.9129 91.007 77.0226 91.0524 71.8578 91.0909C68.9715 91.1121 67.6941 91.0559 67.5991 90.9029C67.4373 90.6426 67.5061 88.0834 67.6824 87.7996C67.7596 87.6754 69.1786 87.6014 71.4806 87.6014H75.1556L75.4753 87.116C75.7098 86.7599 75.7712 86.3457 75.7057 85.5605C75.5643 83.8642 75.5732 83.8676 71.4074 83.9123C68.6357 83.9418 67.7825 83.8933 67.6615 83.699C67.4204 83.3124 67.4256 80.956 67.6679 80.7937C67.7844 80.7157 69.7311 80.6505 71.994 80.6488C76.5059 80.6457 76.7186 80.5939 76.7186 79.4998C76.7186 79.2034 76.766 78.5794 76.8241 78.113C76.8822 77.6464 76.86 77.1641 76.7751 77.041C76.5564 76.7242 63.2102 76.4811 63.0179 76.7906ZM79.8168 76.8687C79.5554 77.129 79.5715 94.0825 79.8336 94.5696C80.0265 94.928 80.3091 94.9432 86.716 94.9432C94.4492 94.9432 94.0077 95.053 94.0077 93.1309C94.0077 91.1119 94.1837 91.1823 89.0212 91.1353C86.5819 91.1131 84.5171 91.0913 84.4328 91.087C84.3485 91.0826 84.3048 90.3184 84.3357 89.3885L84.3918 87.698L88.1799 87.6473C92.5925 87.5884 92.4536 87.6531 92.4536 85.656C92.4536 83.8547 92.5595 83.8985 88.1374 83.8636L84.3918 83.8338L84.2947 82.4304C84.2413 81.6585 84.2267 80.9413 84.2623 80.8364C84.3023 80.7189 85.9589 80.6459 88.5845 80.6459C93.7136 80.6459 93.5399 80.722 93.6003 78.4509C93.6287 77.3836 93.569 76.9437 93.3866 76.8743C92.8969 76.6875 80.0041 76.6823 79.8168 76.8687ZM97.3587 76.7182C96.9385 76.7767 96.7228 76.9153 96.7143 77.132C96.5977 80.0307 96.7984 94.506 96.9579 94.6969C97.0976 94.8644 97.7443 94.9432 98.9782 94.9432C101.196 94.9432 101.195 94.9446 101.195 92.2961V90.3965L102.125 89.3854C103.12 88.3029 103.582 88.1425 103.916 88.7631C104.16 89.2154 108.555 94.5829 108.858 94.7987C108.971 94.8787 110.024 94.9222 111.2 94.8953C114.244 94.826 114.257 94.8945 110.262 90.0879C110.03 89.8084 109.709 89.3848 109.548 89.1464C109.388 88.9082 109.133 88.5854 108.982 88.4291C108.305 87.7283 106.44 85.1795 106.44 84.9537C106.44 84.8159 106.593 84.5504 106.78 84.3638C106.967 84.177 107.985 83.0685 109.043 81.9004C110.101 80.7323 111.478 79.2983 112.104 78.7138C114.145 76.8075 113.753 76.5582 109.047 76.7723C108.875 76.78 107.519 78.0847 105.651 80.0388C104.797 80.933 102.598 83.3375 102.217 83.7944C101.302 84.891 101.209 84.6296 101.151 80.7933L101.098 77.2696L100.598 77.0314C100.022 76.7572 98.2835 76.5889 97.3587 76.7182Z" fill="white"/>
</svg>
