<svg width="278" height="70" viewBox="0 0 278 70" fill="none" xmlns="http://www.w3.org/2000/svg">
<path d="M11.1624 35.9568L0 35.9278L0.0903318 1.74823L11.6063 1.77814C14.9848 1.78691 17.8844 2.47871 20.3052 3.85353C22.7261 5.21721 24.5785 7.17468 25.8626 9.72593C27.1579 12.2661 27.8008 15.3108 27.7914 18.86C27.782 22.4204 27.1173 25.4784 25.7973 28.034C24.4886 30.5896 22.5977 32.5541 20.1247 33.9273C17.6518 35.2894 14.6644 35.9659 11.1624 35.9568ZM5.21431 31.4352L10.8881 31.45C13.5146 31.4568 15.699 30.9729 17.4413 29.9983C19.1837 29.0126 20.4895 27.5863 21.3587 25.7193C22.2279 23.8413 22.6661 21.5504 22.6732 18.8467C22.6803 16.1653 22.2542 13.8889 21.3949 12.0175C20.5468 10.146 19.2766 8.72415 17.5843 7.75177C15.892 6.77939 13.7887 6.28994 11.2745 6.28341L5.28082 6.26785L5.21431 31.4352Z" fill="white"/>
<path d="M37.0436 1.46168L46.5667 29.3243L46.9539 29.3253L56.6242 1.51253L62.2475 1.52713L49.7488 35.6745L43.7383 35.6589L31.4203 1.44708L37.0436 1.46168Z" fill="white"/>
<path d="M96.8002 20.2657C96.7905 23.9151 96.1088 27.0509 94.755 29.6732C93.4011 32.2844 91.5494 34.2934 89.1999 35.7003C86.8615 37.0962 84.2052 37.7902 81.2308 37.7825C78.2451 37.7747 75.5812 37.0669 73.2391 35.6589C70.9082 34.2398 69.0728 32.2156 67.7328 29.5864C66.3929 26.9571 65.7277 23.8233 65.7373 20.1851C65.747 16.5357 66.4287 13.4054 67.7825 10.7943C69.1363 8.17197 70.9824 6.16292 73.3207 4.76708C75.6703 3.36015 78.3379 2.66056 81.3236 2.66831C84.298 2.67604 86.9506 3.38944 89.2815 4.80853C91.6236 6.21652 93.4647 8.23515 94.8047 10.8644C96.1447 13.4826 96.8098 16.6163 96.8002 20.2657ZM91.6483 20.2523C91.6557 17.4708 91.2073 15.1276 90.3031 13.2226C89.4103 11.3066 88.1794 9.85699 86.6106 8.8738C85.0531 7.87952 83.2866 7.37982 81.3111 7.37469C79.3244 7.36953 77.5497 7.86004 75.987 8.84621C74.4242 9.82127 73.1857 11.2645 72.2715 13.1758C71.3685 15.076 70.9134 17.4169 70.906 20.1985C70.8987 22.98 71.3414 25.3288 72.2343 27.2448C73.1384 29.1498 74.3693 30.5994 75.9268 31.5937C77.4844 32.5768 79.2565 33.071 81.2432 33.0761C83.2186 33.0813 84.9878 32.5963 86.5505 31.6213C88.1245 30.6351 89.363 29.1919 90.266 27.2917C91.1802 25.3803 91.641 23.0339 91.6483 20.2523Z" fill="white"/>
<path d="M98.7274 0L104.314 1.91073L107.716 19.5111L108.066 19.6308L121.694 7.85523L127.28 9.76596L108.623 25.3473L104.208 38.0317L99.3058 36.355L103.721 23.6707L98.7274 0Z" fill="white"/>
<path d="M154.694 3.89024L154.604 38.0698L149.823 38.0574L132.362 12.9446L132.042 12.9438L131.976 38.0111L126.774 37.9976L126.864 3.81796L131.679 3.83047L149.156 28.9767L149.476 28.9775L149.542 3.87686L154.694 3.89024Z" fill="#3D44FB"/>
<path d="M167.486 3.92345L167.395 38.103L162.193 38.0895L162.283 3.90994L167.486 3.92345Z" fill="#3D44FB"/>
<path d="M174.972 38.1227L175.062 3.94313L180.264 3.95664L180.221 20.2787L180.642 20.2798L195.148 3.99529L201.697 4.0123L187.75 19.3637L201.657 38.192L195.394 38.1758L184.289 22.8762L180.202 27.5052L180.174 38.1362L174.972 38.1227Z" fill="#3D44FB"/>
<path d="M234.739 21.188C234.73 24.8374 234.048 27.9732 232.694 30.5955C231.34 33.2067 229.488 35.2157 227.139 36.6226C224.801 38.0185 222.144 38.7125 219.17 38.7048C216.184 38.697 213.52 37.9892 211.178 36.5812C208.847 35.1621 207.012 33.1379 205.672 30.5086C204.332 27.8794 203.667 24.7456 203.676 21.1074C203.686 17.458 204.368 14.3277 205.722 11.7165C207.075 9.09427 208.921 7.08521 211.26 5.68938C213.609 4.28245 216.277 3.58286 219.263 3.59061C222.237 3.59833 224.89 4.31174 227.221 5.73083C229.563 7.13882 231.404 9.15745 232.744 11.7867C234.084 14.4049 234.749 17.5386 234.739 21.188ZM229.587 21.1746C229.595 18.3931 229.146 16.0499 228.242 14.1449C227.349 12.2289 226.118 10.7793 224.55 9.7961C222.992 8.80182 221.226 8.30211 219.25 8.29698C217.263 8.29182 215.489 8.78233 213.926 9.76851C212.363 10.7436 211.125 12.1868 210.211 14.0981C209.308 15.9983 208.852 18.3392 208.845 21.1208C208.838 23.9023 209.28 26.2511 210.173 28.1671C211.077 30.0721 212.308 31.5217 213.866 32.516C215.423 33.4991 217.196 33.9933 219.182 33.9984C221.158 34.0036 222.927 33.5186 224.49 32.5435C226.064 31.5574 227.302 30.1142 228.205 28.214C229.119 26.3026 229.58 23.9562 229.587 21.1746Z" fill="#3D44FB"/>
<path d="M266.197 11.6864L245.103 32.3797L245.272 32.7252L274.73 29.1562L277.181 34.1733L258.96 36.0854L240.739 37.9975L238.119 32.6349L263.747 6.66932L266.197 11.6864Z" fill="#3D44FB"/>
<path d="M130.284 66.2882H127.511V46.8752H130.284V49.6485H133.058V52.4218H130.284V66.2882ZM135.831 49.6485H138.604V46.8752H141.377V66.2882H138.604V52.4218H135.831V49.6485ZM135.831 57.9684H133.058V52.4218H135.831V57.9684ZM155.247 49.6485H146.927V46.8752H155.247V49.6485ZM146.927 66.2882H144.153V49.6485H146.927V57.9684H155.247V49.6485H158.02V66.2882H155.247V60.7416H146.927V66.2882ZM163.569 66.2882H160.796V46.8752H171.889V49.6485H163.569V55.1951H171.889V57.9684H169.116V60.7416H166.342V57.9684H163.569V66.2882ZM174.662 55.1951H171.889V49.6485H174.662V55.1951ZM171.889 63.5149H169.116V60.7416H171.889V63.5149ZM174.662 66.2882H171.889V63.5149H174.662V66.2882ZM180.212 66.2882H177.438V46.8752H180.212V55.1951H182.985V57.9684H180.212V66.2882ZM191.305 49.6485H188.531V46.8752H191.305V49.6485ZM188.531 52.4218H185.758V49.6485H188.531V52.4218ZM185.758 55.1951H182.985V52.4218H185.758V55.1951ZM185.758 60.7416H182.985V57.9684H185.758V60.7416ZM188.531 63.5149H185.758V60.7416H188.531V63.5149ZM191.305 66.2882H188.531V63.5149H191.305V66.2882ZM207.947 66.2882H194.081V46.8752H207.947V49.6485H196.854V55.1951H202.401V57.9684H196.854V63.5149H207.947V66.2882ZM216.27 49.6485H210.723V46.8752H224.59V49.6485H219.043V66.2882H216.27V49.6485ZM232.912 49.6485H230.139V46.8752H238.459V49.6485H235.685V63.5149H238.459V66.2882H230.139V63.5149H232.912V49.6485ZM246.781 66.2882H244.008V46.8752H246.781V52.4218H249.555V55.1951H246.781V66.2882ZM252.328 57.9684H255.101V46.8752H257.874V66.2882H255.101V60.7416H252.328V57.9684ZM252.328 57.9684H249.555V55.1951H252.328V57.9684ZM271.744 49.6485H263.424V46.8752H271.744V49.6485ZM263.424 63.5149H260.65V49.6485H263.424V63.5149ZM274.517 52.4218H271.744V49.6485H274.517V52.4218ZM271.744 57.9684H268.97V55.1951H274.517V63.5149H271.744V57.9684ZM271.744 66.2882H263.424V63.5149H271.744V66.2882Z" fill="white"/>
</svg>
