<svg width="311" height="86" viewBox="0 0 311 86" fill="none" xmlns="http://www.w3.org/2000/svg">
<path d="M88.3217 31.8863C88.2917 32.6063 88.1617 33.3563 87.6917 33.9163C86.5917 35.2263 85.0317 34.6163 83.8317 33.3963C83.1617 36.0263 79.2017 37.0963 76.4717 37.2463C73.3617 37.4263 70.3217 36.2963 67.5717 35.0563L66.9817 39.8963C66.9617 40.0363 66.8517 40.8863 66.6917 41.7063C67.2817 42.0963 67.9217 42.6163 68.3417 42.9463C72.2917 46.1163 74.9517 50.6463 76.6217 55.3963C78.2917 60.1563 79.0317 65.1763 79.7117 70.1663C79.9917 72.2463 80.2417 74.4863 79.2717 76.3463C77.6917 79.3963 73.5717 80.1463 70.1617 79.6263C69.1717 79.4763 68.2017 79.3463 67.2517 79.0263C67.5817 78.4463 67.7817 77.9763 67.9917 77.3263C68.4217 75.9763 68.5417 74.5463 68.5817 73.1363C68.6517 70.3563 68.2917 67.5663 67.7017 64.8563C66.5617 59.6163 64.4917 54.4963 61.6417 49.9263C61.7117 49.9163 61.7817 49.8863 61.8517 49.8363C64.0417 48.4263 65.8017 45.9563 66.2917 43.4463C66.3117 43.3363 66.3217 43.2463 66.3117 43.1763C66.3117 43.1763 66.3117 43.1663 66.3117 43.1563C66.3117 42.9363 66.0717 42.7263 65.9517 42.6863C65.5917 42.5663 65.2217 42.7863 65.1417 43.0963C64.5317 45.2763 63.1517 47.5663 61.2017 48.8163C61.1317 48.8663 61.0817 48.9163 61.0317 48.9663C60.9317 48.8163 60.8317 48.6663 60.7317 48.5163C59.0017 45.9563 56.9717 43.5463 54.5517 41.5963C53.9517 41.1063 53.1317 41.9863 53.7317 42.4763C57.9617 45.9063 61.0517 50.6663 63.2917 55.5563C65.5817 60.5563 67.1717 66.0263 67.3517 71.5363C67.4017 73.0163 67.3517 74.5163 67.0817 75.9763C66.6917 78.1663 64.8817 79.6563 61.5617 80.2963C58.4617 80.8963 55.2117 79.5263 52.9617 77.3363C50.7117 75.1363 49.3217 72.2263 48.2217 69.2863C46.4917 64.6663 45.3917 59.8163 44.9417 54.9063C44.9017 54.4763 44.8617 54.0163 44.5917 53.6763C44.2917 53.3063 43.7917 53.1563 43.3217 53.0563C42.7017 52.9163 40.8017 52.7463 38.5517 52.5863C38.5517 55.8563 37.6817 61.0863 36.8317 63.9663C36.0817 66.4963 34.9117 69.0263 32.7817 70.6063C29.8417 72.7863 25.8917 72.6163 22.1917 72.1163C25.2717 68.0763 26.9217 62.8663 27.9317 58.0363C28.1717 56.8963 28.9017 53.9663 29.0917 52.2063C28.8417 52.2063 28.6317 52.2063 28.4617 52.2263C27.4917 52.3563 27.4317 53.8663 27.4317 53.8663C26.6617 59.6263 25.1217 65.5463 21.9017 70.4263C21.5617 70.9463 21.1917 71.4463 20.8017 71.9263C20.7817 71.9563 20.7617 71.9763 20.7417 72.0063C20.1317 72.7563 19.4517 73.4563 18.7317 74.0863C16.3717 75.8163 13.1517 76.4163 10.3717 75.4363C9.4117 75.0963 8.4817 74.5663 7.8817 73.7563C6.9917 72.5563 6.9417 70.9463 7.0317 69.4563C7.3217 64.6363 8.7017 59.9563 10.0817 55.3263C11.0217 52.1463 12.0517 48.9163 13.8017 46.0563C14.6517 44.6763 15.6617 43.4063 16.9117 42.3463C17.4117 41.9263 18.1817 41.5163 18.2617 40.7963C18.3517 39.9963 17.5017 39.0563 17.1217 38.4063C15.8817 36.2963 14.6417 34.1863 13.4017 32.0763C11.8317 29.4063 10.2017 26.2663 11.2717 23.3663C11.8117 21.9063 13.0017 20.6663 13.1617 19.1063C13.3117 17.6263 12.4217 16.3163 11.3817 15.2363C9.6417 13.4463 12.1517 11.5863 13.5717 12.0863C15.4717 12.7563 14.2517 14.6063 15.8217 16.4863C17.4517 18.4463 20.6617 16.0463 24.2117 19.8363C28.3517 24.2563 30.3217 29.6563 32.2417 35.3763C37.9217 34.4663 43.7917 34.7163 49.3717 36.1163C49.7017 36.1963 50.0517 36.2763 50.3517 36.1163C50.6017 35.9863 50.7417 35.7163 50.8617 35.4663C51.7217 33.6763 52.5917 31.8963 53.4517 30.1063C51.2117 29.5463 49.4417 27.7663 48.3817 25.7263C47.3217 23.6863 46.2417 21.3563 45.8917 19.0963C45.1917 14.6063 44.7817 10.2663 46.3617 5.99625C46.7517 4.94625 47.9317 3.59625 48.7617 2.84625C51.2117 0.656255 55.3017 1.61626 57.7417 3.93625C59.7917 5.88626 60.9317 8.74625 61.8317 11.3763C62.7617 14.0763 63.5317 17.4563 62.3617 20.2063C62.1917 20.6063 62.4617 20.9663 62.7817 21.0663C62.7817 21.0863 63.0917 21.0463 63.0917 21.0463C63.3517 20.9963 63.3717 20.9363 63.3917 20.8863C64.6117 17.8863 64.0517 14.1363 63.0517 11.1763C62.1617 8.51626 60.8617 5.83626 59.0617 3.62625C60.2317 2.41625 61.5317 1.32625 63.0717 0.646255C64.9417 -0.173745 67.2217 -0.293745 68.9617 0.756255C71.3417 2.19625 72.0617 5.27625 72.2817 8.03625C72.5917 11.9963 72.1117 16.5163 71.2717 20.3963C72.3517 20.3963 73.3017 20.3963 73.7917 20.3963C75.9917 20.5963 78.1817 20.9663 80.1417 21.9363C82.8117 23.2663 84.9917 26.0463 84.6517 28.9963C86.2417 28.3263 87.2017 28.1963 87.9817 28.9663C88.7617 29.7363 88.4117 30.7763 88.3617 31.8663L88.3217 31.8863Z" fill="url(#paint0_linear_41_132)"/>
<path d="M55.4222 74.1763C53.4222 74.6863 51.7122 70.4263 50.8322 67.9563C49.6022 64.5463 48.7022 60.9863 48.1522 57.3463C48.0122 56.4263 47.1222 50.5863 49.1022 53.1163C49.9722 54.2363 50.5022 56.0963 51.0022 57.5063C52.4522 61.5863 53.7922 65.5863 55.3622 69.7163C56.2722 72.1163 56.4822 73.8963 55.4322 74.1663L55.4222 74.1763Z" fill="#8C9DF4"/>
<path d="M58.3814 77.866C57.6814 77.986 56.9714 77.576 56.5414 77.016C56.2914 76.686 56.3114 75.966 56.4814 75.676C57.1014 74.606 58.2614 75.376 58.7914 75.746C59.0014 75.896 59.2114 76.066 59.3314 76.306C59.6514 76.936 59.0914 77.756 58.3914 77.876L58.3814 77.866Z" fill="#8C9DF4"/>
<path d="M17.2115 49.4061C15.9215 52.6861 14.9415 55.2361 14.1015 58.1561C12.9515 62.1261 12.2215 65.3561 10.9915 69.2361C10.7615 69.9461 9.77152 71.1261 9.37152 70.7661C7.45152 69.0761 13.8615 48.6961 16.1615 47.0761C16.6915 46.7061 17.2915 46.7661 17.4915 47.2761C17.7715 47.9761 17.4715 48.7161 17.2015 49.4061H17.2115Z" fill="#8C9DF4"/>
<path d="M55.3811 7.45614C55.1411 8.02614 54.5011 7.58614 54.3911 7.47614C53.3711 6.48614 51.7411 6.15614 50.3411 9.04614C50.1911 9.34614 49.8511 9.55614 49.5111 9.55614C48.9211 9.55614 48.6211 8.84614 48.6211 8.26614C48.6211 6.21614 50.2311 4.21614 52.1911 4.02614C52.9911 3.94614 53.9111 4.17614 54.4611 4.75614C55.0111 5.33614 55.2911 5.87614 55.4211 6.66614C55.4711 6.92614 55.4911 7.20614 55.3811 7.45614Z" fill="#8C9DF4"/>
<path d="M52.9607 24.7762C52.5307 25.4262 51.2707 23.9262 50.8407 23.2862C48.4507 19.6462 47.6307 14.9162 47.7307 13.3262C47.8707 11.1162 49.8307 10.9162 49.9707 12.4162C50.7507 20.7362 53.4407 24.0462 52.9607 24.7762Z" fill="#8C9DF4"/>
<path d="M82.371 28.6163C82.161 30.3963 79.511 32.0363 79.101 31.0763C78.991 30.8163 79.511 30.5363 79.781 30.3363C82.401 28.4063 80.081 25.8263 80.011 25.5563C79.831 24.7763 81.001 25.3363 81.501 25.9663C82.081 26.6963 82.481 27.6863 82.371 28.6263V28.6163Z" fill="#8C9DF4"/>
<path d="M47.5207 39.5463C47.1007 39.6263 44.2307 39.2263 43.2407 39.0563C39.2207 38.3663 33.8307 39.7763 33.5407 38.0163C33.3107 36.6063 40.3307 36.4563 44.0307 37.1563C45.0307 37.3463 48.0207 38.1363 48.1807 38.7863C48.2807 39.1963 47.9507 39.4663 47.5207 39.5463Z" fill="#8C9DF4"/>
<path d="M19.2024 37.2961C18.7224 37.5061 18.2624 36.9261 17.9824 36.4861C16.0624 33.5061 14.1924 30.5061 12.9724 27.1361C12.4324 25.6661 12.6024 22.7961 14.0324 21.7261C14.7324 21.2061 15.9424 21.0561 16.3724 21.9261C16.9124 23.0361 15.6224 24.0761 15.3824 25.0661C14.6724 28.0661 18.3824 33.7261 19.3724 35.6261C19.6724 36.2061 19.8024 37.0261 19.2024 37.2861V37.2961Z" fill="#8C9DF4"/>
<path d="M108.599 57.3965H100.551V31.3165H108.955C111.485 31.3165 113.65 31.8386 115.45 32.8828C117.25 33.9185 118.629 35.4085 119.589 37.3526C120.548 39.2882 121.028 41.6059 121.028 44.3055C121.028 47.0222 120.544 49.3611 119.576 51.3222C118.608 53.2748 117.199 54.7774 115.348 55.8302C113.497 56.8744 111.248 57.3965 108.599 57.3965ZM103.709 54.5949H108.395C110.551 54.5949 112.338 54.1789 113.756 53.347C115.174 52.515 116.231 51.3307 116.927 49.7941C117.623 48.2574 117.971 46.4279 117.971 44.3055C117.971 42.2001 117.628 40.3876 116.94 38.868C116.252 37.3398 115.225 36.1683 113.858 35.3533C112.491 34.5298 110.789 34.118 108.752 34.118H103.709V54.5949ZM126.169 31.3165L133.912 53.2705H134.217L141.96 31.3165H145.271L135.694 57.3965H132.434L122.858 31.3165H126.169ZM177.349 31.3165H180.965L188.198 43.4905H188.504L195.737 31.3165H199.354L189.93 46.6487V57.3965H186.772V46.6487L177.349 31.3165ZM224.119 31.3165V57.3965H221.062L206.851 36.9196H206.596V57.3965H203.438V31.3165H206.494L220.757 51.8443H221.012V31.3165H224.119ZM233.596 31.3165V57.3965H230.438V31.3165H233.596ZM239.928 57.3965V31.3165H243.087V44.2546H243.392L255.108 31.3165H259.234L248.282 43.083L259.234 57.3965H255.413L246.347 45.2734L243.087 48.9409V57.3965H239.928ZM284.101 44.3565C284.101 47.1071 283.604 49.4842 282.611 51.4877C281.618 53.4913 280.255 55.0364 278.523 56.123C276.791 57.2097 274.813 57.753 272.589 57.753C270.365 57.753 268.387 57.2097 266.655 56.123C264.923 55.0364 263.56 53.4913 262.567 51.4877C261.574 49.4842 261.077 47.1071 261.077 44.3565C261.077 41.6059 261.574 39.2288 262.567 37.2252C263.56 35.2217 264.923 33.6766 266.655 32.5899C268.387 31.5033 270.365 30.9599 272.589 30.9599C274.813 30.9599 276.791 31.5033 278.523 32.5899C280.255 33.6766 281.618 35.2217 282.611 37.2252C283.604 39.2288 284.101 41.6059 284.101 44.3565ZM281.045 44.3565C281.045 42.0983 280.667 40.1923 279.911 38.6388C279.164 37.0852 278.15 35.9093 276.868 35.1113C275.594 34.3133 274.168 33.9143 272.589 33.9143C271.01 33.9143 269.579 34.3133 268.297 35.1113C267.024 35.9093 266.01 37.0852 265.254 38.6388C264.507 40.1923 264.133 42.0983 264.133 44.3565C264.133 46.6147 264.507 48.5206 265.254 50.0742C266.01 51.6278 267.024 52.8036 268.297 53.6016C269.579 54.3997 271.01 54.7987 272.589 54.7987C274.168 54.7987 275.594 54.3997 276.868 53.6016C278.15 52.8036 279.164 51.6278 279.911 50.0742C280.667 48.5206 281.045 46.6147 281.045 44.3565ZM289.255 31.3165L296.998 53.2705H297.303L305.046 31.3165H308.357L298.78 57.3965H295.52L285.944 31.3165H289.255Z" fill="white"/>
<path d="M187.912 42.8062H186.412V41.5362H179.382V40.1662H175.212V38.6462H172.652V37.3362H174.012V35.9062H175.392V34.3662H176.702V31.2962H178.082V28.4562H179.372V26.9662H180.892V24.3262H182.332V21.3762H179.432V22.8462H178.092V24.3362H176.702V25.7662H174.022V27.0762H172.492V30.0262H169.752V31.2962H167.112V32.9362H165.562V12.5962H162.912V14.2162H161.582V19.9262H160.112V24.3262H158.702V28.6262H157.222V32.9262H155.892V36.0162H154.372V34.4762H146.152V32.9362H139.072V35.8262H142.182V37.1762H143.472V39.8762H147.452V41.6562H150.292V45.9762H149.082V47.3162H147.832V48.6762H146.432V50.8462H143.482V54.2462H142.192V56.8362H140.602V58.2662H139.272V61.3562H143.472V58.4262H146.162V57.1562H148.932V55.7062H153.132V52.9062H155.902V51.2462H158.552V50.2862H160.072V48.4362H161.592V51.2462H162.922V52.7562H165.502V55.7062H166.832V57.6362H168.572V59.8162H169.782V61.3562H172.322V52.9062H171.222V48.4262H173.872V47.2062H179.492V45.6462H183.642V44.3962H187.922V42.8362L187.912 42.8062ZM170.182 45.9662H168.552V54.2262H166.812V51.4462H165.562V48.6662H164.012V47.3062H162.802V45.9662H158.712V48.3962H154.582V50.0162H151.722V52.7162H148.942V54.2162H147.462V51.2062H148.942V50.0162H150.262V48.6462H151.722V46.8862H153.142V44.2662H154.392V41.2562H153.142V39.8662H150.112V37.1662H153.142V38.6362H158.712V37.1662H160.072V32.9262H161.592V35.8162H162.922V37.1662H165.572V35.8162H168.222V34.5062H169.642V32.9262H172.412V31.2862H174.042V32.9262H173.192V34.3562H171.322V35.8962H169.922V37.3262H168.442V41.5362H174.242V42.8062H176.802V44.3662H172.602V45.9662H170.212H170.182Z" fill="#3D44FB"/>
<path d="M197.31 73.3894L200.628 66.0102L204.124 65.9712L204.283 80.1705L202.351 80.1921L202.211 67.6348L202.018 67.637L198.719 75.0159L195.763 75.0489L192.281 67.7458L192.107 67.7477L192.247 80.3049L190.316 80.3265L190.157 66.1272L193.654 66.0881L197.116 73.3915L197.31 73.3894ZM209.645 76.227L208.529 80.1231L206.597 80.1446L210.688 65.8978L215.325 65.8461L219.734 79.9979L217.802 80.0195L216.599 76.1493L209.645 76.227ZM212.118 67.6208L210.147 74.4825L216.058 74.4165L213.934 67.6005L212.118 67.6208ZM233.116 77.9742L233.136 79.7129L231.785 79.9212C230.742 79.9329 229.789 79.3253 229.255 78.2106L228.345 76.3273C228.146 75.8465 227.834 75.5795 227.525 75.5636L223.931 75.6037L223.98 79.9505L222.048 79.972L221.89 65.7727L228.245 65.7017C230.969 65.6713 233.196 67.849 233.227 70.573C233.25 72.6981 231.899 74.5487 230.014 75.246L230.944 77.245C231.162 77.7256 231.455 77.9928 231.764 77.9894L233.116 77.9742ZM228.266 67.537L223.842 67.5864L223.911 73.7684L228.335 73.719C229.919 73.7013 231.313 72.198 231.295 70.5946C231.277 68.9718 229.869 67.5191 228.266 67.537ZM247.689 77.8115L247.708 79.5501L246.938 79.752C245.895 79.7636 244.941 79.156 244.407 78.0413L242.528 74.1594C242.33 73.6786 241.958 73.3157 241.514 73.3206L237.322 73.3675L237.394 79.8006L235.462 79.8222L235.303 65.6229L237.235 65.6013L237.302 71.6288L241.147 71.5858C241.533 71.5815 241.916 71.2874 242.104 70.8023L243.707 67.2679C244.216 66.1416 245.156 65.5128 246.199 65.5012L246.781 65.6879L246.8 67.4266L246.221 67.4331C245.912 67.4365 245.625 67.7102 245.418 68.1955L243.853 71.7295C243.74 71.9626 243.53 72.1775 243.376 72.2565C243.649 72.408 244.078 72.809 244.256 73.1934L246.096 77.0757C246.314 77.5563 246.607 77.8235 246.916 77.8201L247.689 77.8115ZM251.94 77.9958L260.827 77.8966L260.845 79.5387L250.026 79.6595L249.868 65.4602L260.107 65.3458L260.124 66.8913L251.817 66.9841L251.868 71.5627L258.63 71.4871L258.647 73.0326L251.885 73.1082L251.94 77.9958ZM269.195 66.9832L269.334 79.4438L267.402 79.4654L267.263 67.0048L262.24 67.0609L262.221 65.3222L274.198 65.1884L274.218 66.9271L269.195 66.9832ZM278.443 65.141L278.602 79.3403L276.67 79.3619L276.511 65.1626L278.443 65.141ZM290.879 77.5609L290.739 65.0036L292.671 64.9821L292.829 79.1814L289.197 79.2219L283.165 66.7305L282.721 66.7355L282.861 79.2927L280.929 79.3143L280.77 65.115L284.402 65.0744L290.435 77.5658L290.879 77.5609ZM296.678 72.0282C296.713 75.1385 299.48 77.2329 302.146 77.2031C303.575 77.1872 304.825 76.6322 305.762 75.7909L305.727 72.6033L301.09 72.6551L301.071 70.9164L307.639 70.8431L307.703 76.5614C306.348 78.1029 304.35 79.1106 302.167 79.135C298.226 79.179 294.79 76.0101 294.746 72.0498C294.702 68.0894 298.066 64.8445 302.007 64.8005C303.707 64.7815 305.296 65.1888 306.852 66.1375L306.879 68.4751L305.178 68.494L304.933 67.2602C304.098 66.8638 303.111 66.7203 302.029 66.7324C299.363 66.7621 296.643 68.9179 296.678 72.0282Z" fill="white"/>
<defs>
<linearGradient id="paint0_linear_41_132" x1="17.5517" y1="14.2563" x2="72.4317" y2="74.4263" gradientUnits="userSpaceOnUse">
<stop stop-color="#3D44FB"/>
<stop offset="1" stop-color="#000060"/>
</linearGradient>
</defs>
</svg>
