<svg width="172" height="149" viewBox="0 0 172 149" fill="none" xmlns="http://www.w3.org/2000/svg">
<g clip-path="url(#clip0_45_379)">
<path d="M162.475 93.0095L157.662 92.5087L158.059 88.6954L135.501 86.3485L135.929 82.235L122.548 80.8429L123.023 76.279L114.808 75.4243L115.218 71.4909L119.582 71.945L120.028 67.6513L124.456 68.112L124.938 63.488L129.141 63.9253L130.1 54.7074L134.528 55.1681L135.415 46.6407L139.555 47.0714L140.02 42.5975L144.898 43.105L145.722 35.1781L150.343 35.6588L151.264 26.8012L141.959 25.8331L141.5 30.2469L137.2 29.7995L136.734 34.2734L132.274 33.8094L131.828 38.1031L123.228 37.2084L122.819 41.1418L117.909 40.631L116.988 49.4886L108.196 48.5739L107.799 52.3872L99.3277 51.5059L98.8153 56.4301L93.8417 55.9126L100.196 -5.15996L91.6923 -6.04463L91.1862 -1.18044L86.9185 -1.62444L85.1348 15.5203L80.4179 15.0296L79.0434 28.241L74.519 27.7702L73.1757 40.6814L68.4267 40.1873L67.0834 53.0984L62.8157 52.6544L61.8505 61.9324L56.9731 61.425L57.4542 56.801L31.1099 54.0602L31.591 49.4362L8.87267 47.0726L7.96988 55.7501L17.9492 56.7883L17.5275 60.8418L21.6669 61.2725L20.8234 69.3795L33.5945 70.7081L33.0384 76.0527L42.1514 77.0008L40.8019 89.972L36.9193 89.5681L36.5007 93.5915L32.4897 93.1742L32.0648 97.2577L27.5725 96.7904L26.8946 103.306L17.4287 102.321L16.3666 112.53L12.2272 112.099L11.4181 119.876L6.31615 119.345L5.86944 123.639L1.56964 123.192L0.604377 132.47L14.0813 133.872L14.9966 125.074L23.6283 125.972L24.025 122.159L32.9134 123.084L33.3664 118.73L46.8433 120.132L47.718 111.725L56.6064 112.649L57.1249 107.665L65.6283 108.55L65.9281 105.667L70.8055 106.175L71.3834 100.62L76.2608 101.127L75.383 109.565L79.6507 110.009L79.179 114.543L87.4577 115.404L86.5362 124.262L90.8039 124.706L90.201 130.501L95.7843 131.081L95.1033 137.627L98.9859 138.031L98.5049 142.655L106.655 143.503L109.295 118.131L105.765 117.764L107.165 104.312L115.668 105.197L116.049 101.534L134.083 103.41L134.57 98.7259L147.886 100.111L148.277 96.3581L162.011 97.7869L162.498 93.1029L162.475 93.0095ZM104.593 96.6087L99.3625 96.0646L96.7822 120.866L91.1989 120.285L92.0673 111.938L88.0563 111.521L88.9248 103.173L83.9511 102.656L84.376 98.5724L80.4933 98.1685L80.9119 94.145L67.7879 92.7796L67.0288 100.076L53.7765 98.6971L53.2704 103.561L44.0933 102.607L43.2498 110.714L34.3294 109.785L33.8608 114.289L29.1118 113.795L30.052 104.757L34.8011 105.252L35.1728 101.678L39.4084 102.119L39.8364 98.0056L44.5212 98.493L45.071 93.2084L49.6275 93.6825L50.446 85.8157L54.457 86.233L55.3972 77.1952L51.3862 76.7779L51.8205 72.6043L42.0978 71.5928L42.9412 63.4858L52.6639 64.4973L52.2047 68.9111L70.0777 70.7706L70.5369 66.3568L74.9009 66.8108L76.2254 54.0799L81.1028 54.5873L80.2 63.2648L84.4677 63.7088L84.046 67.7623L92.5493 68.647L92.971 64.5935L101.474 65.4781L101.884 61.5447L106.44 62.0188L106.934 57.2747L115.822 58.1994L116.334 53.2752L121.565 53.8194L121.052 58.7436L118.325 58.4598L117.878 62.7535L111.878 62.1293L111.397 66.7532L106.904 66.2859L106.458 70.5796L101.709 70.0855L100.393 82.7264L119.004 84.6626L118.608 88.4759L126.822 89.3305L126.335 94.0146L112.858 92.6125L112.358 97.4166L104.689 96.6187L104.593 96.6087Z" fill="#3D44FB"/>
</g>
<defs>
<clipPath id="clip0_45_379">
<rect width="157.531" height="147.136" fill="white" transform="translate(15.2266 -14) rotate(5.93959)"/>
</clipPath>
</defs>
</svg>
