<svg width="62" height="62" viewBox="0 0 62 62" fill="none" xmlns="http://www.w3.org/2000/svg">
<g clip-path="url(#clip0_162_22)">
<path d="M61.9995 56.9324L61.9995 18.1718C61.9995 17.8021 61.8668 17.451 61.6309 17.1885L45.8867 2.76142C45.072 1.8595 43.6602 2.48419 43.6602 3.74467L43.6602 41.0933C43.6602 41.4629 43.7929 41.8141 44.0288 42.0765L59.773 57.9157C60.5877 58.8176 61.9995 58.1929 61.9995 56.9324Z" fill="white"/>
<path d="M4.48276 43.6067L41.7292 43.6067C42.0978 43.6067 42.448 43.7398 42.7098 43.9763L58.5056 59.7637C59.405 60.5806 58.7821 61.9964 57.525 61.9964L18.8704 61.9964C18.5018 61.9964 18.1516 61.8633 17.8899 61.6267L3.5022 45.8393C2.60274 45.0224 3.22573 43.6067 4.48276 43.6067Z" fill="white"/>
<path d="M0.527178 15.3478L25.7305 40.2727C26.2207 40.7644 26.8769 41.0527 27.5478 41.0749L38.5035 41.0749C39.9043 41.1192 41.0065 40.014 40.9623 38.6094L40.9623 27.8269C40.9438 27.1505 40.6526 26.4962 40.1623 26.0046L15.3056 0.528865C15.3056 0.528865 15.2945 0.517775 15.2908 0.514079C14.5609 -0.206722 13.3629 -0.151276 12.6404 0.576918L0.5751 12.6716C-0.151103 13.3998 -0.206397 14.5974 0.512433 15.3293C0.516119 15.333 0.523491 15.3404 0.527178 15.3441L0.527178 15.3478Z" fill="white"/>
</g>
<defs>
<clipPath id="clip0_162_22">
<rect width="62" height="62" fill="white" transform="matrix(-1.19249e-08 1 1 1.19249e-08 7.39343e-07 0)"/>
</clipPath>
</defs>
</svg>
