<svg width="62" height="62" viewBox="0 0 62 62" fill="none" xmlns="http://www.w3.org/2000/svg">
<g clip-path="url(#clip0_162_12)">
<path d="M-0.00148517 56.9324L-0.00148564 18.1718C-0.00148564 17.8021 0.131222 17.451 0.367146 17.1885L16.1114 2.76142C16.926 1.8595 18.3379 2.48419 18.3379 3.74467L18.3379 41.0933C18.3379 41.4629 18.2052 41.8141 17.9693 42.0765L2.22505 57.9157C1.41037 58.8176 -0.00148516 58.1929 -0.00148517 56.9324Z" fill="white"/>
<path d="M57.5163 43.6067L20.2698 43.6067C19.9012 43.6067 19.551 43.7398 19.2893 43.9763L3.49344 59.7637C2.59398 60.5806 3.21696 61.9964 4.474 61.9964L43.1286 61.9964C43.4972 61.9964 43.8474 61.8633 44.1092 61.6267L58.4968 45.8393C59.3963 45.0224 58.7733 43.6067 57.5163 43.6067Z" fill="white"/>
<path d="M61.4718 15.3478L36.2686 40.2727C35.7783 40.7644 35.1221 41.0527 34.4512 41.0749L23.4955 41.0749C22.0947 41.1192 20.9925 40.014 21.0367 38.6094L21.0367 27.8269C21.0552 27.1505 21.3464 26.4962 21.8367 26.0046L46.6934 0.528865C46.6934 0.528865 46.7045 0.517775 46.7082 0.514079C47.4381 -0.206722 48.6361 -0.151276 49.3586 0.576918L61.4239 12.6716C62.1501 13.3998 62.2054 14.5974 61.4866 15.3293C61.4829 15.333 61.4755 15.3404 61.4718 15.3441L61.4718 15.3478Z" fill="white"/>
</g>
<defs>
<clipPath id="clip0_162_12">
<rect width="62" height="62" fill="white" transform="translate(62) rotate(90)"/>
</clipPath>
</defs>
</svg>
