<svg width="62" height="62" viewBox="0 0 62 62" fill="none" xmlns="http://www.w3.org/2000/svg">
<g clip-path="url(#clip0_162_7)">
<path d="M5.06685 9.7922e-05L43.8275 0.000101311C44.1971 0.000101343 44.5483 0.132809 44.8107 0.368733L59.2378 16.1129C60.1398 16.9276 59.5151 18.3395 58.2546 18.3395L20.906 18.3395C20.5364 18.3395 20.1852 18.2068 19.9228 17.9708L4.08361 2.22663C3.18168 1.41196 3.80638 9.78118e-05 5.06685 9.7922e-05Z" fill="white"/>
<path d="M18.3926 57.5175L18.3926 20.271C18.3926 19.9024 18.2595 19.5522 18.0229 19.2905L2.23555 3.49466C1.41864 2.5952 0.00291167 3.21819 0.00291156 4.47522L0.00290818 43.1298C0.00290815 43.4985 0.135978 43.8487 0.372548 44.1104L16.1599 58.498C16.9769 59.3975 18.3926 58.7745 18.3926 57.5175Z" fill="white"/>
<path d="M46.6515 61.4727L21.7265 36.2694C21.2349 35.7791 20.9466 35.123 20.9244 34.4521L20.9244 23.4964C20.8801 22.0956 21.9853 20.9934 23.3899 21.0376L34.1724 21.0376C34.8488 21.056 35.5031 21.3473 35.9947 21.8375L61.4704 46.6943C61.4704 46.6943 61.4815 46.7054 61.4852 46.709C62.206 47.4389 62.1505 48.637 61.4224 49.3595L49.3277 61.4248C48.5995 62.151 47.4018 62.2063 46.67 61.4874C46.6663 61.4838 46.6589 61.4764 46.6552 61.4727L46.6515 61.4727Z" fill="white"/>
</g>
<defs>
<clipPath id="clip0_162_7">
<rect width="62" height="62" fill="white" transform="translate(62 62) rotate(-180)"/>
</clipPath>
</defs>
</svg>
