<svg width="62" height="62" viewBox="0 0 62 62" fill="none" xmlns="http://www.w3.org/2000/svg">
<g clip-path="url(#clip0_162_17)">
<path d="M56.9322 9.7922e-05L18.1715 0.000101311C17.8019 0.000101343 17.4507 0.132809 17.1883 0.368733L2.76119 16.1129C1.85926 16.9276 2.48395 18.3395 3.74443 18.3395L41.093 18.3395C41.4627 18.3395 41.8138 18.2068 42.0763 17.9708L57.9154 2.22663C58.8173 1.41196 58.1927 9.78118e-05 56.9322 9.7922e-05Z" fill="white"/>
<path d="M43.6065 57.5175L43.6064 20.271C43.6064 19.9024 43.7395 19.5522 43.9761 19.2905L59.7635 3.49466C60.5804 2.5952 61.9961 3.21819 61.9961 4.47522L61.9961 43.1298C61.9961 43.4985 61.8631 43.8487 61.6265 44.1104L45.8391 58.498C45.0222 59.3975 43.6065 58.7745 43.6065 57.5175Z" fill="white"/>
<path d="M15.3476 61.4727L40.2725 36.2694C40.7641 35.7791 41.0524 35.123 41.0746 34.4521L41.0746 23.4964C41.119 22.0956 40.0138 20.9934 38.6091 21.0376L27.8267 21.0376C27.1502 21.056 26.496 21.3473 26.0043 21.8375L0.528624 46.6943C0.528624 46.6943 0.517535 46.7054 0.513839 46.709C-0.206963 47.4389 -0.151516 48.637 0.576678 49.3595L12.6714 61.4248C13.3996 62.151 14.5972 62.2063 15.3291 61.4874C15.3328 61.4838 15.3402 61.4764 15.3439 61.4727L15.3476 61.4727Z" fill="white"/>
</g>
<defs>
<clipPath id="clip0_162_17">
<rect width="62" height="62" fill="white" transform="matrix(1 -8.74228e-08 -8.74228e-08 -1 5.42021e-06 62)"/>
</clipPath>
</defs>
</svg>
